<?xml version="1.0" encoding="UTF-8"?>
<svg id="Scene" xmlns="http://www.w3.org/2000/svg" viewBox="0 0 122.79 154.38">
  <defs>
    <style>
      .cls-1 {
        fill: none;
        stroke: #000;
        stroke-linecap: round;
        stroke-miterlimit: 10;
        stroke-width: 4px;
      }
    </style>
  </defs>
  <path class="cls-1" d="m32.36,43.08h-7.11c-1.64,0-2.96,1.33-2.96,2.96v73.78c0,1.64,1.33,2.96,2.96,2.96h58.67c1.64,0,2.96-1.33,2.96-2.96v-25.48"/>
  <path class="cls-1" d="m76.51,43.08h6.85c.96,0,1.74.78,1.74,1.74v7.3"/>
  <line class="cls-1" x1="52.54" y1="63.12" x2="73.99" y2="63.12"/>
  <line class="cls-1" x1="52.54" y1="71.23" x2="69.54" y2="71.23"/>
  <line class="cls-1" x1="52.54" y1="86.78" x2="63.27" y2="86.78"/>
  <rect class="cls-1" x="32.77" y="60.9" width="12.06" height="12.06"/>
  <rect class="cls-1" x="32.77" y="80.76" width="12.06" height="12.06"/>
  <rect class="cls-1" x="32.77" y="100.62" width="12.06" height="12.06"/>
  <path class="cls-1" d="m39.75,52.12h27.5c.53,0,.96-.43.96-.96v-12.08c0-.53-.43-.96-.96-.96h-5.81c-.25,0-.5-.1-.68-.28l-5.96-5.96c-.37-.37-.98-.37-1.36,0l-5.96,5.96c-.18.18-.42.28-.68.28h-7.06c-.53,0-.96.43-.96.96v12.08c0,.53.43.96.96.96Z"/>
  <path class="cls-1" d="m100.51,58.41l-5.74-4.16c-.56-.41-1.34-.31-1.79.22l-1.75,2.08c-.5.6-.38,1.5.27,1.94l4.51,3.09c.61.41.76,1.24.34,1.85l-25.6,37.06c-.06.08-.12.16-.2.23l-5.13,4.66c-.88.8-2.27.06-2.1-1.12l1.6-7.02c.04-.16.1-.31.2-.45l23.02-33.41"/>
</svg>
