<?xml version="1.0" encoding="UTF-8"?>
<svg id="Scene" xmlns="http://www.w3.org/2000/svg" viewBox="0 0 122.79 154.38">
  <defs>
    <style>
      .cls-1 {
        fill: #fff;
      }

      .cls-2 {
        stroke-width: 3px;
      }

      .cls-2, .cls-3 {
        fill: none;
        stroke: #fff;
        stroke-miterlimit: 10;
      }

      .cls-3 {
        stroke-linecap: round;
        stroke-width: 4px;
      }
    </style>
  </defs>
  <path class="cls-3" d="m21.03,37.02h37.97c1.16,0,2.27.46,3.09,1.28l13.88,13.88c.82.82,1.28,1.93,1.28,3.09v56.04c0,2.41-1.96,4.37-4.37,4.37H21.03c-2.41,0-4.37-1.96-4.37-4.37V41.39c0-2.41,1.96-4.37,4.37-4.37Z"/>
  <path class="cls-1" d="m75.91,54.52h-16.61v-16.81l1.39,1.11c6.92,1.5,12.06,7.17,14.22,14.94l1,.76Z"/>
  <circle class="cls-2" cx="62.56" cy="83.33" r="18.44"/>
  <path class="cls-1" d="m72.88,99.61s13.63,22.96,19.78,16.67c0,0,6.96-4.37-.37-10.37s-14.45-12.25-14.45-12.25l-4.96,5.95Z"/>
  <line class="cls-3" x1="27.32" y1="61.76" x2="46.95" y2="61.76"/>
  <line class="cls-3" x1="27.32" y1="70.98" x2="46.95" y2="70.98"/>
  <line class="cls-3" x1="27.32" y1="80.2" x2="43.69" y2="80.2"/>
  <line class="cls-3" x1="27.77" y1="89.42" x2="44.69" y2="89.42"/>
  <line class="cls-3" x1="27.77" y1="98.65" x2="51.25" y2="98.65"/>
</svg>