<?xml version="1.0" encoding="UTF-8"?>
<svg id="Layer_1" data-name="Layer 1" xmlns="http://www.w3.org/2000/svg" viewBox="0 0 38.42 35.8">
  <defs>
    <style>
      .cls-1 {
        fill: #fff;
      }
    </style>
  </defs>
  <path class="cls-1" d="m36.42,0H2C.9,0,0,.9,0,2v24.48c0,1.1.9,2,2,2h13.5v3.38c0,1.33-1.08,2.41-2.41,2.42h-.45c-.42,0-.76.34-.76.76s.34.76.76.76h13.18c.42,0,.76-.34.76-.76s-.34-.76-.76-.76h-.45c-1.32-.03-2.37-1.1-2.37-2.42v-3.38h13.42c1.1,0,2-.9,2-2V1.99c0-1.1-.9-1.99-2-1.99Zm-20.22,34.28c.53-.7.81-1.55.8-2.42v-3.38h4.4v3.38c0,.88.29,1.73.83,2.42h-6.03Zm20.69-7.8c0,.26-.21.47-.47.47H2c-.26,0-.47-.21-.47-.47h0v-3h35.36v3Zm0-4.55H1.57V1.99c0-.24.19-.45.43-.47h34.42c.26,0,.47.21.47.47h0v19.94Z"/>
  <path class="cls-1" d="m33.35,12.12h-4.93c-.86,0-1.56.69-1.58,1.55v5c0,.87.71,1.58,1.58,1.58h4.93c.87,0,1.58-.71,1.58-1.58v-5c-.02-.86-.72-1.54-1.58-1.55Zm-2.46.94c.8,0,1.44.64,1.44,1.44s-.64,1.44-1.44,1.44c-.8,0-1.44-.64-1.44-1.44h0c0-.79.63-1.43,1.42-1.44,0,0,.01,0,.02,0Zm2.4,5.37s-.03.07-.06.09c-.46.33-.99.55-1.55.66h0c-1.1.26-2.25.02-3.15-.66-.03-.02-.05-.05-.06-.09.08-.98.66-1.85,1.53-2.3.06-.03.14-.03.2,0,.22.15.47.24.74.24.27-.01.53-.1.75-.24.06-.03.12-.03.18,0h0c.59.35,1.03.89,1.25,1.54h0c.12.23.18.5.17.76Z"/>
  <path class="cls-1" d="m24.73,12.12H7.07c-1.04,0-1.88.84-1.88,1.88v4.34c0,1.04.84,1.88,1.88,1.88h14c.21.02.42-.03.6-.14.71-.29,1.18-.97,1.18-1.74v-3.67l2.15-2c.13-.12.14-.32.02-.45-.07-.08-.18-.12-.29-.1Zm-4.35,5.31c0,.26-.21.47-.47.47h-5.55c-.26,0-.47-.21-.47-.47v-.22c0-.26.21-.47.47-.47h5.55c.26,0,.47.21.47.47v.22Zm0-2.3c0,.26-.21.47-.47.47h-10.68c-.26,0-.47-.21-.47-.47v-.22c0-.26.21-.47.47-.47h10.68c.26,0,.47.21.47.47v.22Z"/>
  <path class="cls-1" d="m33.05,2.93H3.47c-.18,0-.31.16-.31.33,0,.05.01.1.04.14l1.8,2.09v3.65c0,.77.47,1.46,1.18,1.75.18.11.39.15.6.13h26.27c1.04,0,1.88-.84,1.88-1.88h0v-4.33c0-1.04-.84-1.88-1.88-1.88h0Zm-10.5,5.3c0,.26-.21.47-.47.47h-13.65c-.26,0-.47-.21-.47-.47h0v-.21c0-.26.21-.47.47-.47h13.65c.26,0,.47.21.47.47v.21Zm9.45-2.3c0,.26-.21.47-.47.47H8.43c-.26,0-.47-.21-.47-.47h0v-.21c0-.26.21-.47.47-.48h23.07c.26,0,.47.22.47.48l.03.21Z"/>
</svg>