<?xml version="1.0" encoding="UTF-8"?>
<svg id="Layer_1" data-name="Layer 1" xmlns="http://www.w3.org/2000/svg" viewBox="0 0 40.18 38.49">
  <defs>
    <style>
      .cls-1 {
        fill: #fff;
      }
    </style>
  </defs>
  <path class="cls-1" d="m36.28,17.65c2.26-.87,3.78-2.99,3.9-5.4h0c0-.07-.01-.14-.03-.2,0-.05,0-.11,0-.16L35.74.55c-.14-.34-.47-.56-.84-.55H6.67c-.34,0-.65.19-.8.49L0,11.8H0c0,.06,0,.11,0,.17,0,.06,0,.11,0,.17H0c.06,2.43,1.56,4.59,3.81,5.51v19.94c0,.5.4.9.9.9h30.66c.5,0,.9-.4.9-.9h0v-19.94Zm-1.99-15.88l3.68,9.55h-10.7l-1.08-9.55s8.1,0,8.1,0Zm-9.91,0l1.07,9.55h-10.63l2.27-9.55h7.29Zm1.06,11.35c-.53,2-2.74,3.44-5.39,3.44s-4.86-1.48-5.39-3.44h10.78ZM7.22,1.77h8l-2.27,9.55H2.29L7.22,1.77ZM1.82,13.12h10.8c-.53,2-2.75,3.44-5.39,3.44s-4.87-1.48-5.41-3.44Zm32.71,12.63H5.62v-7.54c.53.1,1.07.15,1.61.15,2.53.07,4.94-1.13,6.41-3.19,1.47,2.07,3.88,3.26,6.41,3.19,2.53.07,4.94-1.12,6.41-3.19,1.47,2.06,3.88,3.26,6.41,3.19.54,0,1.08-.05,1.61-.15l.05,7.54Zm-1.61-9.19c-2.64,0-4.86-1.48-5.39-3.44h10.74c-.53,1.96-2.75,3.44-5.4,3.44h.05Z"/>
</svg>