<?xml version="1.0" encoding="UTF-8"?>
<svg id="Layer_1" data-name="Layer 1" xmlns="http://www.w3.org/2000/svg" viewBox="0 0 50.46 50.46">
  <defs>
    <style>
      .cls-1 {
        fill: #fff;
      }
    </style>
  </defs>
  <path class="cls-1" d="m30.77,13.47l-1.18-.47c.02-.25.02-.51,0-.76l1.18-.49c.07-.02.11-.1.09-.18,0,0,0-.02-.01-.02l-.85-1.94c-.03-.08-.12-.12-.2-.09l-1.14.48c-.16-.19-.34-.37-.54-.53l.49-1.18c.03-.08-.01-.17-.09-.2l-1.95-.8c-.08-.03-.17.01-.2.09l-.49,1.17c-.25-.02-.51-.02-.76,0l-.49-1.17c-.03-.08-.12-.11-.2-.08,0,0,0,0,0,0l-1.95.8c-.08.03-.12.12-.09.2l.49,1.17c-.19.16-.37.35-.53.54l-1.19-.48c-.07-.04-.15-.01-.19.06,0,0,0,.02-.01.02l-.8,1.94c-.03.08,0,.16.08.2,0,0,0,0,0,0l1.18.48c-.02.25-.02.51,0,.76l-1.18.49c-.07.02-.11.1-.09.18,0,0,0,.02.01.02l.84,1.94s.04.07.08.08c.04.02.08.02.12,0l1.18-.48c.16.19.34.37.54.53l-.49,1.18c-.03.08.01.17.09.2l2,.8c.08.03.17-.01.2-.09l.49-1.17c.25.02.51.02.76,0l.49,1.17s.05.07.09.08c.04.02.08.02.12,0l1.94-.8c.08-.03.12-.12.09-.2l-.49-1.18c.19-.16.37-.34.53-.53l1.19.48c.07.04.15.01.19-.06,0,0,0-.02.01-.02l.81-1.94c.02-.09-.03-.17-.11-.2-.02,0-.04,0-.06,0Zm-6.16,1.3c-1.17-.48-1.74-1.82-1.27-3,.5-1.19,1.86-1.76,3.06-1.27,1.18.48,1.74,1.82,1.27,3-.5,1.19-1.86,1.76-3.06,1.27Z"/>
  <path class="cls-1" d="m21.73,8l-.44-.41c.06-.1.1-.21.13-.33h.58s.07-.04.07-.08v-1s-.03-.06-.07-.06h-.6c-.04-.11-.09-.22-.14-.32l.41-.44v-.1l-.72-.67s-.07-.03-.1,0c0,0,0,0,0,0l-.43.41c-.11-.05-.22-.09-.33-.12v-.6s-.06-.04-.09-.03h-1s-.07.03-.08.07l.08.68c-.11.03-.22.08-.32.14l-.44-.41s-.07-.03-.1,0c0,0,0,0,0,0l-.68.71s-.03.08,0,.11l.44.4c-.06.11-.1.22-.13.34h-.6s-.07.03-.07.07v1h.65c.04.11.08.22.14.32l-.41.43s-.02.07,0,.1l.72.68s.07.02.1,0l.42-.44c.1.06.21.1.33.13v.59s0,.04,0,.06h1s.08,0,.07-.07v-.6c.11-.04.22-.08.32-.14l.44.41s.07.02.1,0l.68-.71s.08,0,.09-.04c.01-.03,0-.06-.02-.08Zm-2.91-.46c-.43-.42-.43-1.1-.01-1.53,0,0,0,0,.01-.01.43-.43,1.12-.43,1.55,0,.43.42.43,1.1.01,1.53,0,0,0,0-.01.01-.43.42-1.12.42-1.55,0Z"/>
  <path class="cls-1" d="m28.51,34.13h-.05c-.24-.1-.52-.07-.73.08-.85.57-1.84.88-2.86.9-1.03-.03-2.04-.36-2.9-.93-.23-.13-.51-.13-.74,0-4.24,2.1-6,7.74-5.63,8.85.05.13.14.25.26.34,2.67,1.79,5.79,2.79,9,2.89,3.22-.05,6.36-1.06,9-2.91.11-.1.19-.22.24-.35.41-1.13-1.35-6.77-5.59-8.87Zm-.32,1.38c.4.22.78.48,1.12.78l-1.69,2.12-1.69-2.06c.8-.15,1.56-.43,2.26-.84Zm-1.94,2.74l-1.35,1.65v.06c0,.06,0-.05,0-.06l-1.35-1.65,1.38-1.68,1.32,1.68Zm-4.7-2.74c.7.41,1.47.69,2.27.84l-1.69,2.06-1.7-2.12c.35-.29.73-.55,1.12-.78Zm-4.64,6.88c.44-2.02,1.41-3.88,2.83-5.39l2,2.51c.1.1.23.17.37.18.14,0,.28-.06.37-.17l.38-.47,1,1.23-2.5,4.09c-1.58-.4-3.09-1.07-4.45-1.98Zm8,2.45c-.84-.02-1.67-.11-2.49-.29l2.49-4.08,2.51,4.11c-.84.17-1.69.25-2.55.26h.04Zm3.5-.48l-2.52-4.12,1-1.23.38.47c.09.11.23.17.37.17h0c.14,0,.28-.07.37-.18l1.99-2.47c1.42,1.53,2.39,3.4,2.83,5.44-1.36.9-2.87,1.55-4.46,1.92h.04Z"/>
  <path class="cls-1" d="m24.87,34.05c3.56,0,6.42-4.29,6.42-7.85-.14-3.54-3.13-6.3-6.67-6.16-3.35.13-6.03,2.81-6.16,6.16,0,3.56,2.86,7.85,6.41,7.85Zm5.05-7.85v.31c-1.42-.52-2-3.15-2.19-4.47,1.38.94,2.2,2.5,2.19,4.16Zm-10.09,0c0-2.77,2.23-5.02,5-5.05.6,0,1.18.12,1.74.33-.45,1.97-1.72,3.65-3.48,4.63-.99.58-2.16.77-3.28.54.03-.15.02-.3.02-.45Zm.83,1.53c1.02,0,2.02-.26,2.92-.73,1.51-.82,2.71-2.11,3.42-3.68.37,1.62,1.17,3.72,2.79,4.16-.55,2.55-2.61,5.2-4.9,5.2s-4.23-2.51-4.85-5c.21.03.41.05.62.05Z"/>
  <path class="cls-1" d="m34.75,26.85l.07.25c.04.14.07.28.08.42h0c0,.08-.15.28-.33.58l-.09.13c-.12.21-.09.48.08.66.51.51,1.16.86,1.87,1h.13c.31,0,.56-.26.55-.57,0-.25-.17-.47-.41-.53-.36-.09-.69-.23-1-.43.12-.18.22-.36.3-.56v-.28c0-.24-.04-.49-.11-.72l-.08-.26c0-.11-.06-.21-.08-.31v-.09c-.26-.57-.4-1.2-.4-1.83,0-2.39,1.95-4.32,4.33-4.31,2.39,0,4.32,1.95,4.31,4.33,0,.65-.15,1.29-.43,1.87l-.17.58c-.08.24-.12.49-.12.74,0,.09,0,.18,0,.27v.08c.08.2.18.39.29.57-.23.16-.48.27-.74.35-.29.1-.45.41-.35.71.09.28.4.44.68.36.59-.16,1.13-.48,1.55-.93.16-.18.19-.45.07-.66l-.08-.14c-.07-.11-.27-.44-.33-.57h0c0-.14.03-.28.07-.42.05-.19.11-.38.14-.5.33-.72.5-1.5.5-2.29,0-3-2.44-5.44-5.44-5.44s-5.44,2.44-5.44,5.44c0,.77.16,1.53.47,2.24.06.06.08.16.11.26Z"/>
  <path class="cls-1" d="m42.59,30.66c-.2-.08-.43-.06-.61.07-.69.46-1.51.72-2.34.74-.85-.03-1.67-.29-2.38-.76-.17-.12-.39-.14-.57-.05h0c-1.86,1.04-3.29,2.69-4.06,4.67.29.32.56.65.81,1,.44-1.23,1.13-2.37,2.02-3.33l2,2.12c.07.08.17.13.28.13h0c.12-.04.22-.13.26-.25l1.61-2.32,1.64,2.32c.07.1.17.16.29.17h0c.11,0,.22-.05.29-.13l2-2.12c1.18,1.25,2,2.81,2.36,4.49-1.94,1.28-4.21,1.98-6.53,2-1.77-.06-3.5-.48-5.11-1.22.23.47.44.95.61,1.45,1.44.54,2.96.84,4.5.89,2.62-.03,5.18-.83,7.34-2.32.09-.07.16-.18.2-.29.34-.92-1.1-5.52-4.61-7.26Zm-4.93,3.53l-1.66-1.77c.28-.22.57-.43.88-.61.59.34,1.24.58,1.91.7l-1.13,1.68Zm4,0l-1.16-1.67c.67-.12,1.32-.36,1.91-.71.31.17.61.38.88.61l-1.63,1.77Z"/>
  <path class="cls-1" d="m41.48,22.3c-.07-.14-.23-.22-.38-.19-.15.02-.28.14-.31.29-.49,2.19-1.94,2.32-3.11,2.42-.68.06-1.46.12-1.46.88,0,1.89,1.53,4.17,3.42,4.17s3.41-2.28,3.41-4.17c-.38-1.2-.91-2.34-1.57-3.4Zm-1.84,6.82c-1.41,0-2.67-1.91-2.68-3.42.25-.08.52-.13.79-.13,1.5.08,2.89-.77,3.5-2.14.41.72.74,1.48,1,2.27.05,1.51-1.2,3.42-2.61,3.42Z"/>
  <path class="cls-1" d="m16.83,35.78c.26-.32.53-.62.82-.91-.79-1.78-2.14-3.25-3.85-4.19h0c-.2-.08-.43-.06-.6.07-.69.46-1.51.72-2.34.74-.85-.03-1.67-.29-2.37-.76-.19-.1-.43-.1-.62,0-3.52,1.67-4.96,6.27-4.65,7.21.04.11.11.21.21.28,2.19,1.47,4.75,2.29,7.39,2.37,1.27-.02,2.52-.22,3.73-.6.15-.46.33-.92.53-1.36-1.13.44-2.33.71-3.54.8l2-4c.08-.19.02-.41-.16-.51l-.79-.46,1.66-2.17c1.13.94,2.02,2.13,2.58,3.49Zm-12.54,1.68c.43-2.04,1.54-3.86,3.14-5.19l1.66,2.16-.79.46c-.18.1-.25.32-.16.51l1.95,4c-2.06-.18-4.05-.85-5.8-1.94Zm6.15.88l-1.44-2.96.87-.5c.09-.06.16-.15.18-.26.03-.11.01-.23-.05-.32l-1.93-2.47h0c.71.4,1.5.65,2.32.73.04,1.78.05,4.35.05,5.78Zm1.21-4c-.06.09-.09.21-.07.32.02.11.09.21.19.26l.86.5-1.41,3v-5.82c.83-.07,1.63-.33,2.34-.76h0l-1.91,2.5Z"/>
  <path class="cls-1" d="m6.38,27.33c.41.82,1.86,3.26,4.45,3.26s4-2.45,4.45-3.26c.59-.3,1-.85,1.13-1.5.32-.8.25-1.7-.2-2.43-.11-.13-.23-.25-.36-.35-.75-2.76-3.59-4.39-6.35-3.65-1.78.48-3.17,1.87-3.65,3.65-.15.1-.28.23-.39.38-.46.72-.54,1.63-.21,2.42.12.64.54,1.19,1.13,1.48Zm0-3.2c.07-.11.19-.18.32-.19h0c.05.01.11-.02.12-.08,0,0,0,0,0-.01.38-2.18,2.45-3.63,4.63-3.25,1.66.29,2.96,1.59,3.25,3.25.01.06.07.11.14.1.13,0,.25.07.33.18.13.18.24.56,0,1.37-.11.38-.33.83-.69.73-.06-.02-.12.01-.14.07,0,0,0,0,0,0-.6,1.53-1.95,3.08-3.59,3.08s-3-1.56-3.59-3.1c-.02-.04-.06-.07-.11-.07h0c-.36.13-.59-.34-.7-.72-.19-.81-.08-1.19.05-1.36h-.02Z"/>
</svg>