<svg id="Scene" xmlns="http://www.w3.org/2000/svg" viewBox="0 0 236.8 200"><defs><style>.cls-1{fill:#232a44;}.cls-2{fill:#444480;}.cls-3{fill:#747cbb;}.cls-4{fill:#db6d56;}.cls-5{fill:#210b04;}.cls-6{fill:#d7e6f9;}.cls-7{fill:#bf5847;}.cls-8{fill:#fad4b0;}.cls-9{fill:#fff;}.cls-10{fill:#64a38c;}.cls-11,.cls-13{fill:none;}.cls-11{stroke:#1371b0;stroke-miterlimit:10;stroke-width:2px;}.cls-12,.cls-18{fill:#1371b0;}.cls-14,.cls-15,.cls-18{isolation:isolate;}.cls-15,.cls-18{font-size:7.38px;font-family:Helvetica;}.cls-15{letter-spacing:-0.03em;}.cls-16{letter-spacing:-0.03em;}.cls-17{letter-spacing:0em;}</style></defs><title>hombre-computadora-illus</title><rect class="cls-1" x="136.54" y="136.31" width="5.74" height="50.8"/><path class="cls-1" d="M92.65,189h93.09l-43.45-7.87-5.74-.22L92.66,189Z"/><path class="cls-2" d="M151.11,137.2H68.62a2.94,2.94,0,0,1-2.94-2.94V83.89A16.88,16.88,0,0,1,82.55,67h68.56A2.94,2.94,0,0,1,154.05,70v64.3a2.94,2.94,0,0,1-2.94,2.94Z"/><rect class="cls-3" x="70.41" y="121.94" width="121.38" height="15.27" rx="2.16"/><path class="cls-3" d="M124.13,124.85h73.7l16.24-43.79c5.93-16-.55-29-14.48-29H176.33c-13.93,0-30,13-36,29Z"/><path class="cls-1" d="M202.51,139.45H82.13a.44.44,0,0,1-.44-.44v-2.25a.44.44,0,0,1,.44-.44H202.51a.44.44,0,0,1,.44.44V139A.44.44,0,0,1,202.51,139.45Z"/><path class="cls-4" d="M99.64,57.28c-1.84,3.11-3.66,6.24-5.5,9.36a.33.33,0,0,0-.07.13c-2.65,4.49-5.29,9-7.93,13.46l8.15,6.47c3.66-4.1,6.81-7.82,9.38-11,1-1.28,2-2.48,2.88-3.59l.58-.74C119.55,55.47,121,49.9,119.49,46a7.29,7.29,0,0,0-.93-1.78,16.29,16.29,0,0,0-9.75,1.23C101.63,48.77,99.84,56.31,99.64,57.28Z"/><path class="cls-5" d="M93.75,66.49c.12.09.2.19.31.28l9.6,8.94c1-1.28,2-2.48,2.88-3.59l.58-.74-13-4.75-.39-.15Z"/><path class="cls-6" d="M87.08,76.4a12.71,12.71,0,0,0,3,9.77,12,12,0,0,0,6.34,3.59c12.76-16.24,21.46-29.24,23.93-35.07.74-1.76,2.13-5.08.79-8.32a8.9,8.9,0,0,0-3.31-3.94,17.72,17.72,0,0,0-8.73,1.22c-4.79,2-7.26,5.87-9.41,9.36A246,246,0,0,0,87.08,76.39Z"/><path class="cls-4" d="M114.67,48.51l16.08-6-9.12-18.73-12.72,4.73a28.14,28.14,0,0,1,5.2,10.89c.12.51.22,1,.3,1.5a28,28,0,0,1,.26,7.59Z"/><path class="cls-7" d="M114.41,40.92a.87.87,0,0,0,.26-.08c2.73-1,3.72-5.15,2.19-9.26a10.56,10.56,0,0,0-.85-1.79l-5,1.86a27.38,27.38,0,0,1,3.09,7.77c.12.51.22,1,.3,1.5Z"/><path class="cls-4" d="M102.75,22.19l.85,2.46a7.2,7.2,0,0,0-.55,2.62,7.87,7.87,0,0,0,.33,2.3c1.09,4.19,1.63,6.3,3.13,7.57,3.88,3.3,12.21-.62,14.8-3.52a14.72,14.72,0,0,0,2-3,14,14,0,0,0,.93-2.59,26.68,26.68,0,0,0-1.66-16.52,18.19,18.19,0,0,0-20.16,1.55c0,1.72.33,8.71.33,9.11Z"/><path class="cls-5" d="M115.4,24.25a.38.38,0,1,0,0-.76,15.85,15.85,0,0,1-2.74-.24c-.46-.08-.9-.17-1.3-.27a.36.36,0,0,0-.46.28.38.38,0,0,0,.28.46c.43.11.88.2,1.36.28a17.27,17.27,0,0,0,2.86.25Z"/><path class="cls-5" d="M113.09,24.31a1.12,1.12,0,1,1-1.2-1.06A1.13,1.13,0,0,1,113.09,24.31Z"/><path class="cls-5" d="M106.84,24.62a.38.38,0,0,0,0-.76,16.71,16.71,0,0,1-2.74-.24c-.46-.08-.89-.17-1.3-.28a.37.37,0,0,0-.46.27.38.38,0,0,0,.27.46c.43.11.88.21,1.36.29a18.2,18.2,0,0,0,2.86.25h0Z"/><path class="cls-5" d="M104.53,24.67a1.12,1.12,0,1,1-1.2-1.06A1.13,1.13,0,0,1,104.53,24.67Z"/><path class="cls-5" d="M115.78,21.75a4.27,4.27,0,0,0-1-.3,20.11,20.11,0,0,0-4.91.26,2.24,2.24,0,0,1-.3-1.24,2.35,2.35,0,0,1,.14-.64c1.09-.09,2.31-.16,3.62-.18a6.07,6.07,0,0,1,2.17.34,1.87,1.87,0,0,1,.77.43,1,1,0,0,1,.28.53c.07.24.18.61,0,.8a.67.67,0,0,1-.75,0Z"/><path class="cls-5" d="M101.6,21.92a2.86,2.86,0,0,1,.78-.31,12.73,12.73,0,0,1,3.91.22,2.51,2.51,0,0,0,.16-1.23,2.75,2.75,0,0,0-.15-.64c-.87-.08-1.84-.14-2.88-.15a3.75,3.75,0,0,0-1.7.36,1.59,1.59,0,0,0-.59.43,1.1,1.1,0,0,0-.19.53c0,.24-.1.61.06.8a.45.45,0,0,0,.59,0Z"/><path class="cls-5" d="M107.77,34.36a3.4,3.4,0,0,0,1.33-.28.38.38,0,0,0-.3-.7,2.46,2.46,0,0,1-.91.21,2.31,2.31,0,0,1-.94-.13.38.38,0,0,0-.48.24.38.38,0,0,0,.24.48,3.39,3.39,0,0,0,1.05.17Z"/><path class="cls-5" d="M108.29,28.88l-2.68,0a1.29,1.29,0,0,0,.53.69,1.84,1.84,0,0,0,2.15-.65Z"/><path class="cls-4" d="M95.38,183.4l6.18-.48c.28-1.54.72-4,1.25-7,2-11.19,2.17-13,3.36-19.64,2.35-13.11,2.72-12.46,2.65-14.94-.21-7.56-3.6-13.6-6.39-17.49L89.9,121.07q.88,11.51,1.88,23.15Q93.46,164,95.38,183.4Z"/><path class="cls-4" d="M81.54,191.48l24-.23a7,7,0,0,0-.16-4.29,6.59,6.59,0,0,0-.66-1.28c-.82-1.24-1.75-3.88-2.5-9.72l-6.56,1.57c-.79,2.13-1.59,4.25-2.38,6.38-3.63,2.71-6.37,3.52-8.27,3.73-.68.07-2.35.19-3.15,1.35a3.33,3.33,0,0,0-.36,2.49Z"/><path class="cls-4" d="M77.73,112.27c-4.44,2.74-8.42,5.18-8.1,7.84.68,5.64,21.25,7.49,40.62,8.08a31.14,31.14,0,0,0,8.25-1.36,35.86,35.86,0,0,0,14.08-8.48l-14.73-13.76c-8.4.55-15.67,1.36-21.56,2.14-7.77,1-12.82,2-18.55,5.54Z"/><path class="cls-4" d="M75.15,182.57l6.18-.48c.28-1.54.72-4,1.25-7,2-11.19,2.17-13,3.36-19.64,2.35-13.11,2.72-12.46,2.65-14.94C88.38,133,85,126.91,82.2,123l-12.53-2.78q.89,11.51,1.88,23.15Q73.23,163.19,75.15,182.57Z"/><path class="cls-4" d="M61.31,190.66l24-.23a7,7,0,0,0-.16-4.29,6.59,6.59,0,0,0-.66-1.28c-.82-1.24-1.75-3.87-2.5-9.72l-6.56,1.57c-.79,2.13-1.59,4.25-2.38,6.38-3.63,2.71-6.37,3.52-8.27,3.73-.68.07-2.35.19-3.15,1.35a3.33,3.33,0,0,0-.36,2.49Z"/><path class="cls-1" d="M153.83,113.59a20.31,20.31,0,0,1-3,9.89,20,20,0,0,1-4.22,4.84l-40,1a33.65,33.65,0,0,1,2.24,8.16c1,7.45-.83,12.68-2,18.67a73.4,73.4,0,0,0-1,20.74h-14Q90.43,148,89,119.16A24.51,24.51,0,0,1,91.73,117a24.09,24.09,0,0,1,5-2.57l42.43-12.05L151.33,101c.42,1.26.82,2.62,1.17,4.07a51.33,51.33,0,0,1,1.33,8.55Z"/><path class="cls-1" d="M133.53,112.64a20.31,20.31,0,0,1-3,9.89,20,20,0,0,1-4.22,4.84l-40,1a31.72,31.72,0,0,1,2.33,7.9c1.17,7.5-.85,12.81-2.11,18.93a69.94,69.94,0,0,0-1,20.74h-14q-1.48-28.87-3-57.75a13.54,13.54,0,0,1,2-3.17,14.44,14.44,0,0,1,6.85-4.38c2-.66,4.12-1.29,6.23-1.91a233.23,233.23,0,0,1,35.16-7.33,17.64,17.64,0,0,1,7.31,2.47A18.25,18.25,0,0,1,133.53,112.64Z"/><path class="cls-8" d="M80,191.8h26.31a15,15,0,0,0-.5-4.09,14.32,14.32,0,0,0-1.47-3.55c-3.11,2.44-5,2.64-6.29,2.16-2.4-.9-3.32-4.66-4.25-4.4-.37.1-.52.77-.58,1.39l-13.05,6.22a1.94,1.94,0,0,0-.48,1.12,1.86,1.86,0,0,0,.31,1.16Z"/><path class="cls-8" d="M59.85,191H86.16a15,15,0,0,0-.5-4.09,14.32,14.32,0,0,0-1.47-3.55c-3.11,2.44-5,2.63-6.29,2.16-2.4-.9-3.32-4.66-4.25-4.4-.37.1-.52.77-.58,1.39l-13,5.88a2.48,2.48,0,0,0-.49,1.46,2.39,2.39,0,0,0,.31,1.16Z"/><path class="cls-5" d="M80.11,191.21a.38.38,0,0,0,.29-.63,1.12,1.12,0,0,1-.33-.8c0-.3.34-.61.9-.95a12.67,12.67,0,0,1,5-1.32.39.39,0,0,0,.35-.41.42.42,0,0,0-.41-.35,13.39,13.39,0,0,0-5.37,1.42c-.8.48-1.21,1-1.27,1.52a1.79,1.79,0,0,0,.51,1.38.37.37,0,0,0,.29.13Z"/><path class="cls-5" d="M92.56,115.72c.1,0,34.22-9.06,34.22-9.06a.38.38,0,0,0-.19-.74l-34.12,9a.38.38,0,0,0-.27.46.38.38,0,0,0,.37.28Z"/><path class="cls-5" d="M89.14,129.39c.29-.06.42-.26.37-.47a15.83,15.83,0,0,1,.36-8.75,14.77,14.77,0,0,1,1.88-3.69.38.38,0,0,0-.62-.44,15.9,15.9,0,0,0-2,3.87,16.45,16.45,0,0,0-.38,9.18.38.38,0,0,0,.37.29Z"/><path class="cls-5" d="M85.61,128.15a.4.4,0,0,0,.32-.17.37.37,0,0,0-.11-.52l-5-3.32a.38.38,0,0,0-.53.1.37.37,0,0,0,.1.52l5,3.32a.44.44,0,0,0,.21.07Z"/><path class="cls-5" d="M106.13,129.39a.38.38,0,0,0,.33-.2.38.38,0,0,0-.15-.52l-3.48-1.93a.39.39,0,0,0-.52.15.38.38,0,0,0,.15.52l3.48,1.93a.41.41,0,0,0,.18,0Z"/><path class="cls-9" d="M110.24,30.87a2.92,2.92,0,0,1-4.63,1.39Z"/><path class="cls-6" d="M105.32,104a90.34,90.34,0,0,0,9.54,2.4,95.16,95.16,0,0,0,37.85-.46,128,128,0,0,0-2.3-45.24c-.59-2.49-1.24-4.89-1.94-7.22a26,26,0,0,0-11.78-13,24.19,24.19,0,0,0-8.12-2.45c-.23-1.35-.46-2.69-.7-4l-7.29,3.9c-.67,3-1.33,5.94-2,8.91-.79-2.57-1.59-5.14-2.38-7.7l-2.44.32c0,.85-.08,1.69-.13,2.54L99.13,55.8,105.31,104Z"/><path class="cls-4" d="M125.43,63.22c-1.84,3.11-3.66,6.24-5.5,9.36a.33.33,0,0,0-.07.13l-7.93,13.46,8.15,6.47c3.66-4.1,6.81-7.82,9.38-11,1-1.28,2-2.48,2.88-3.59l.58-.74c12.42-15.92,13.84-21.49,12.36-25.43a7.29,7.29,0,0,0-.93-1.78,16.29,16.29,0,0,0-9.75,1.23c-7.18,3.36-9,10.9-9.17,11.87Z"/><path class="cls-4" d="M92.06,59.87c-1.43,1.86-2.86,3.71-4.28,5.57q4,3.68,8.14,7.6c9.1,8.73,13.51,13.24,14.29,14.42a11.18,11.18,0,0,0,4.61,4.32,10.36,10.36,0,0,0,5.26.85q1.68-6,3.37-11.94a49.63,49.63,0,0,0-6.5-5.22c-8.41-5.68-14.14-5.81-21.26-12a36.72,36.72,0,0,1-3.63-3.62Z"/><path class="cls-4" d="M50.11,78.83l-25.64,2,7,2.48,7.21,2.56q3.4-.25,7-.63c1.34-.14,2.66-.3,4-.46,1.18.24,3,.63,5.35,1.14,3,.65,5.05,1.15,6,1.37s9.43,2.15,20,3.43a16.62,16.62,0,0,0,6.22-.06,15.61,15.61,0,0,0,7.15-4l-6.53-9.16a50.12,50.12,0,0,0-8.32-.47c-10.15.27-14.88,3.49-24.26,2.6a37.53,37.53,0,0,1-5.05-.83Z"/><path class="cls-6" d="M118.58,72.66a34.49,34.49,0,0,0-1.67,3.71c-2.46,6.43-4.23,16.88-.58,19.07.59.35,3.11,1.56,9.77-3.37,10.51-14.22,17.64-25.66,20.07-31.43,1.28-3,1.84-5.8.79-8.32a8.9,8.9,0,0,0-3.31-3.94,17.72,17.72,0,0,0-8.73,1.22A18.42,18.42,0,0,0,125.51,59Z"/><path class="cls-5" d="M136.76,82.56a.37.37,0,0,0,.28-.63,20.73,20.73,0,0,0-8.52-5.83,20.24,20.24,0,0,0-7.38-1.2.37.37,0,0,0-.37.39.38.38,0,0,0,.38.37,1.54,1.54,0,0,1,.43,0,19.6,19.6,0,0,1,6.68,1.16,20,20,0,0,1,8.21,5.62.39.39,0,0,0,.28.13Z"/><path class="cls-5" d="M140.92,80.26a.37.37,0,0,0,.26-.1.39.39,0,0,0,0-.54,6.45,6.45,0,0,0-3.64-2,6.11,6.11,0,0,0-2.09,0,.38.38,0,0,0-.31.44.39.39,0,0,0,.44.31,5.17,5.17,0,0,1,1.84,0,5.69,5.69,0,0,1,3.21,1.79.39.39,0,0,0,.28.12Z"/><path class="cls-5" d="M132.33,75.65a.38.38,0,0,0,.37-.31l4.44-23.18a.37.37,0,0,0-.3-.44.39.39,0,0,0-.44.3L132,75.2a.37.37,0,0,0,.3.44h.07Z"/><path class="cls-5" d="M129.35,99.91a.38.38,0,0,0,.33-.2.39.39,0,0,0-.15-.52l-11-6.06a.38.38,0,0,0-.51.15.39.39,0,0,0,.15.52l11,6.06A.41.41,0,0,0,129.35,99.91Z"/><path class="cls-5" d="M105.61,69a.39.39,0,0,0,.38-.41l-.84-10.12a.41.41,0,0,0-.41-.35.39.39,0,0,0-.35.41l.84,10.12A.38.38,0,0,0,105.61,69Z"/><path class="cls-6" d="M87.83,73.72a30.19,30.19,0,0,1,6.19,6c3.79,4.9,5.89,10.85,4.76,11.66-.61.44-1.64-1-3.45-.63s-2,1.87-3.41,2.06-2.82-1.21-3.49-1.94c-3.23-3.44-4-9.33-2.19-14.06a14.33,14.33,0,0,1,1.6-3.07Z"/><path class="cls-5" d="M29.69,80H84.18a2.13,2.13,0,0,0,1.95-1.57l8.3-34.15a1.19,1.19,0,0,0-1.18-1.57H38.76a2.13,2.13,0,0,0-1.95,1.57l-8.3,34.15A1.19,1.19,0,0,0,29.69,80Z"/><path class="cls-10" d="M30.89,79.33H83.33a2,2,0,0,0,1.87-1.51l8-32.86a1.15,1.15,0,0,0-1.14-1.51H39.61A2,2,0,0,0,37.74,45l-8,32.86A1.15,1.15,0,0,0,30.89,79.33Z"/><rect class="cls-5" x="6.98" y="79.51" width="80.17" height="1.35" rx="0.19"/><path class="cls-11" d="M51.45,65.59l.28-6.32A7.27,7.27,0,0,1,59,52h6.79a3.93,3.93,0,0,1,3.94,3.93v2.9a6.33,6.33,0,0,1-6.33,6.33Z"/><path class="cls-11" d="M64.06,52V51a3.15,3.15,0,0,0-3.14-3.15h.17a3,3,0,0,0-3,2.79V52Z"/><circle class="cls-12" cx="56.41" cy="58.62" r="1.01"/><circle class="cls-12" cx="60.7" cy="58.6" r="1.01"/><circle class="cls-12" cx="65.08" cy="58.62" r="1.01"/><path class="cls-4" d="M95.55,65.45a13.82,13.82,0,0,0-2.19-9.26c-3.68-5.38-10.62-6.63-11.06-5.84-.18.33.53,1.36,5.33,4.83-16.14-2.68-20-2.46-20.27-1.63-.3,1.17,6.77,3.38,17.46,10.5,2.73,1.82,4.92,3.44,6.42,4.59l4.3-3.18Z"/><path class="cls-5" d="M91.75,70.52l3.83,2.91,4-7.87-4-2.77-3.86,7.74Z"/><path class="cls-9" d="M93.87,68a1.82,1.82,0,1,0,1.82-1.82A1.81,1.81,0,0,0,93.87,68Z"/><path class="cls-5" d="M125.16,10.08c-1.75.11-3.37-.79-5-1.42a17,17,0,0,0-7.45-1.09c-4.33.34-8.56,2.35-12.86,1.72a8.11,8.11,0,0,0,.22,2.91,2.76,2.76,0,0,0,2,2,2.07,2.07,0,0,0,2,1.59,5.75,5.75,0,0,0,2.62-.6,6.55,6.55,0,0,1,2.61-.67,2.26,2.26,0,0,0,2.61.58A24.38,24.38,0,0,1,114.52,14a1.93,1.93,0,0,1,2.33,1.15c.1.46-.06.93,0,1.39s.54.94,1,.71a9.85,9.85,0,0,0,2,5.65,2.1,2.1,0,0,0,.43-1.22,2.34,2.34,0,0,1,.4-1.24.79.79,0,0,1,1.15-.13,1.13,1.13,0,0,1,.2.72l.33,7.16c0,.61.11,1.66.88,1.81.58.11.74-.68.92-1.08A33.18,33.18,0,0,0,126,24.58a21.65,21.65,0,0,0,.64-9.4A20.68,20.68,0,0,0,125.16,10.08Z"/><path class="cls-2" d="M210.74,137.2H128.25a2.94,2.94,0,0,1-2.94-2.94V83.89A16.88,16.88,0,0,1,142.18,67h68.56A2.94,2.94,0,0,1,213.68,70v64.3a2.94,2.94,0,0,1-2.94,2.94Z"/><rect class="cls-13" x="-91.07" y="75.71" width="107.57" height="40.63"/><g class="cls-14"><text class="cls-15" transform="translate(46.88 73.72)">e<tspan class="cls-16" x="3.88" y="0">v</tspan><tspan class="cls-17" x="7.39" y="0">ent</tspan></text><text class="cls-18" transform="translate(64.93 73.72)">ify</text></g></svg>