<?xml version="1.0" encoding="UTF-8"?>
<svg id="Scene" xmlns="http://www.w3.org/2000/svg" viewBox="0 0 236.8 200">
  <defs>
    <style>
      .cls-1 {
        fill: #fff;
      }

      .cls-2 {
        fill: #db6d56;
      }

      .cls-3 {
        fill: #232a44;
      }

      .cls-4 {
        fill: #fad4b0;
      }

      .cls-5 {
        fill: #210b04;
      }

      .cls-6 {
        fill: #bf5847;
      }

      .cls-7 {
        fill: #d7e6f9;
      }

      .cls-8 {
        fill: #444480;
      }

      .cls-9 {
        fill: #747cbb;
      }

      .cls-10 {
        fill: #64a38c;
      }
    </style>
  </defs>
  <g id="_8" data-name="8">
    <g>
      <rect class="cls-3" x="136.54" y="136.31" width="5.74" height="50.8" transform="translate(278.82 323.42) rotate(-180)"/>
      <path class="cls-3" d="m92.65,188.97h93.09c-14.48-2.62-28.97-5.25-43.45-7.87-1.91-.07-3.83-.15-5.74-.22-14.63,2.7-29.26,5.4-43.89,8.1Z"/>
    </g>
    <g>
      <path class="cls-8" d="m68.63,67.03h82.49c1.62,0,2.94,1.32,2.94,2.94v50.37c0,9.31-7.56,16.87-16.87,16.87h-68.56c-1.62,0-2.94-1.32-2.94-2.94v-64.3c0-1.62,1.32-2.94,2.94-2.94Z" transform="translate(219.74 204.23) rotate(-180)"/>
      <rect class="cls-9" x="70.4" y="121.93" width="121.38" height="15.27" rx="2.16" ry="2.16" transform="translate(262.19 259.14) rotate(-180)"/>
      <path class="cls-9" d="m124.13,124.85h73.7s16.24-43.79,16.24-43.79c5.93-16-.55-28.97-14.48-28.97h-23.26c-13.93,0-30.03,12.97-35.96,28.97l-16.24,43.79Z"/>
    </g>
    <path class="cls-3" d="m82.13,136.31h120.38c.24,0,.44.2.44.44v2.25c0,.24-.2.44-.44.44h-120.38c-.24,0-.44-.2-.44-.44v-2.25c0-.24.2-.44.44-.44Z" transform="translate(284.64 275.76) rotate(-180)"/>
    <g>
      <path class="cls-2" d="m99.64,57.28c-1.84,3.11-3.66,6.24-5.5,9.36-.03.04-.06.08-.07.13-2.65,4.49-5.29,8.96-7.93,13.46l8.15,6.47c3.66-4.1,6.81-7.82,9.38-10.98,1.05-1.28,2-2.48,2.88-3.59l.58-.74c12.42-15.92,13.84-21.49,12.36-25.43-.3-.81-.65-1.4-.93-1.78-1.63-.29-5.56-.75-9.75,1.23-7.18,3.36-8.97,10.9-9.17,11.87Z"/>
      <path class="cls-5" d="m93.75,66.49c.12.09.2.19.31.28,3.19,2.98,6.38,5.95,9.6,8.94,1.05-1.28,2-2.48,2.88-3.59l.58-.74-12.98-4.75-.39-.15Z"/>
      <path class="cls-7" d="m87.08,76.4c-.09.79-.6,5.8,3.03,9.77,2.35,2.57,5.2,3.35,6.34,3.59,12.76-16.24,21.46-29.24,23.93-35.07.74-1.76,2.13-5.08.79-8.32-.92-2.2-2.54-3.43-3.31-3.94-1.74-.19-5.06-.31-8.73,1.22-4.79,2-7.26,5.87-9.41,9.36-3.45,5.61-7.91,13.42-12.64,23.38Z"/>
      <path class="cls-2" d="m114.67,48.51l16.08-5.99c-3.04-6.24-6.08-12.49-9.12-18.73l-12.72,4.73c.62.79,1.36,1.83,2.11,3.12,1.18,2,2.36,4.6,3.09,7.77.12.51.22,1.02.3,1.5.52,3.06.46,5.69.26,7.59Z"/>
      <path class="cls-6" d="m114.41,40.92c.09-.01.17-.04.26-.08,2.73-1.02,3.72-5.15,2.19-9.26-.24-.64-.52-1.25-.85-1.79l-5,1.86c1.18,2,2.36,4.6,3.09,7.77.12.51.22,1.02.3,1.5Z"/>
      <path class="cls-2" d="m102.75,22.19c.28.82.57,1.64.85,2.46-.24.58-.53,1.49-.55,2.62-.02,1.05.21,1.84.33,2.3,1.09,4.19,1.63,6.3,3.13,7.57,3.88,3.3,12.21-.62,14.8-3.52,1.23-1.38,2.01-3,2.01-3,.46-.96.75-1.88.93-2.59.38-1.73.68-3.94.61-6.51-.13-4.36-1.31-7.82-2.27-10.01-1.41-.79-5.39-2.78-10.71-2.25-4.86.48-8.16,2.79-9.45,3.8,0,1.72.33,8.71.33,9.11Z"/>
      <path class="cls-5" d="m115.4,24.25c.21,0,.38-.17.38-.38,0-.21-.17-.38-.38-.38-.91,0-1.83-.08-2.74-.24-.46-.08-.9-.17-1.3-.27-.2-.07-.41.07-.46.28-.05.2.07.41.28.46.43.11.88.2,1.36.28.95.16,1.91.25,2.86.25h0Z"/>
      <path class="cls-5" d="m113.09,24.31c.05.63-.41,1.18-1.03,1.23-.62.05-1.16-.43-1.2-1.06-.05-.63.41-1.18,1.03-1.23s1.16.43,1.2,1.06Z"/>
      <path class="cls-5" d="m106.84,24.62c.21,0,.38-.17.38-.38,0-.21-.17-.38-.38-.38-.92,0-1.84-.09-2.74-.24-.46-.08-.89-.17-1.3-.28-.21-.06-.41.07-.46.27-.05.2.07.41.27.46.43.11.88.21,1.36.29.94.16,1.9.24,2.86.25h0Z"/>
      <path class="cls-5" d="m104.53,24.67c.05.63-.41,1.18-1.03,1.23s-1.16-.43-1.2-1.06c-.05-.63.41-1.18,1.03-1.23.62-.05,1.16.43,1.2,1.06Z"/>
      <path class="cls-5" d="m115.78,21.75s-.45-.21-1.01-.3c-.82-.13-2.61-.07-4.91.26-.12-.2-.33-.65-.3-1.24.02-.26.08-.48.14-.64,1.09-.09,2.31-.16,3.62-.18.37,0,1.21-.01,2.17.34.49.18.68.33.77.43.2.19.25.42.28.53.07.24.18.61-.02.8-.16.15-.46.15-.75,0Z"/>
      <path class="cls-5" d="m101.6,21.92s.34-.21.78-.31c.65-.14,2.06-.09,3.91.22.08-.2.23-.65.16-1.23-.03-.26-.09-.48-.15-.64-.87-.08-1.84-.14-2.88-.15-.29,0-.96,0-1.7.36-.38.19-.52.34-.59.43-.15.19-.17.42-.19.53-.04.24-.1.61.06.8.13.15.38.14.59,0Z"/>
      <path class="cls-5" d="m107.77,34.36c.55-.02.95-.11,1.33-.28.19-.08.28-.31.2-.5-.08-.19-.31-.28-.5-.2-.3.13-.6.2-.91.21-.33.03-.63-.03-.94-.13-.2-.06-.41.04-.48.24-.07.2.04.41.24.48.34.11.69.17,1.05.17Z"/>
      <path class="cls-5" d="m108.29,28.88c-.89-.01-1.79-.02-2.68-.03.16.44.42.62.53.69.57.33,1.48.1,2.15-.65Z"/>
      <path class="cls-2" d="m95.38,183.4c2.06-.16,4.12-.32,6.18-.48.28-1.54.72-3.99,1.25-7,1.97-11.19,2.17-12.98,3.36-19.64,2.35-13.11,2.72-12.46,2.65-14.94-.21-7.56-3.6-13.6-6.39-17.49-4.18-.93-8.36-1.85-12.53-2.78.59,7.67,1.22,15.39,1.88,23.15,1.12,13.2,2.33,26.26,3.6,39.18Z"/>
      <path class="cls-2" d="m81.54,191.48c8.01-.08,16.02-.16,24.03-.23.27-1.05.48-2.61-.16-4.29-.26-.68-.57-1.14-.66-1.28-.82-1.24-1.75-3.88-2.5-9.72-2.19.52-4.37,1.05-6.56,1.57-.79,2.13-1.59,4.25-2.38,6.38-3.63,2.71-6.37,3.52-8.27,3.73-.68.07-2.35.19-3.15,1.35-.54.78-.49,1.76-.36,2.49Z"/>
      <path class="cls-2" d="m77.73,112.27c-4.44,2.74-8.42,5.18-8.1,7.84.68,5.64,21.25,7.49,40.62,8.08,2.38-.07,5.19-.42,8.25-1.36,6.39-1.96,11.1-5.64,14.08-8.48-4.91-4.59-9.82-9.17-14.73-13.76-8.4.55-15.67,1.36-21.56,2.14-7.77,1.04-12.82,2-18.55,5.54Z"/>
      <path class="cls-2" d="m75.15,182.57c2.06-.16,4.12-.32,6.18-.48.28-1.54.72-3.99,1.25-7,1.97-11.19,2.17-12.98,3.36-19.64,2.35-13.11,2.72-12.46,2.65-14.94-.21-7.56-3.6-13.6-6.39-17.49-4.18-.93-8.36-1.85-12.53-2.78.59,7.67,1.22,15.39,1.88,23.15,1.12,13.2,2.33,26.26,3.6,39.18Z"/>
      <path class="cls-2" d="m61.31,190.66c8.01-.08,16.02-.16,24.03-.23.27-1.05.48-2.61-.16-4.29-.26-.68-.57-1.14-.66-1.28-.82-1.24-1.75-3.87-2.5-9.72-2.19.52-4.37,1.05-6.56,1.57-.79,2.13-1.59,4.25-2.38,6.38-3.63,2.71-6.37,3.52-8.27,3.73-.68.07-2.35.19-3.15,1.35-.54.78-.49,1.76-.36,2.49Z"/>
      <path class="cls-3" d="m153.83,113.59c-.08,2.02-.52,5.91-2.99,9.89-1.38,2.23-2.98,3.81-4.22,4.84-13.32.34-26.64.69-39.96,1.03.74,1.79,1.74,4.61,2.24,8.16,1.05,7.45-.83,12.68-2.02,18.67-.93,4.7-1.8,11.69-1.02,20.74-4.65,0-9.3,0-13.95-.01-.99-19.25-1.97-38.5-2.96-57.75.78-.7,1.7-1.44,2.78-2.16,1.84-1.23,3.59-2.03,5.05-2.57,14.14-4.02,28.29-8.03,42.43-12.05,4.04-.46,8.08-.93,12.12-1.39.42,1.26.82,2.62,1.17,4.07.76,3.12,1.15,6,1.33,8.55Z"/>
      <path class="cls-3" d="m133.53,112.64c-.08,2.02-.52,5.91-2.99,9.89-1.38,2.23-2.98,3.81-4.22,4.84-13.32.34-26.64.69-39.96,1.03.77,1.74,1.79,4.46,2.33,7.9,1.17,7.5-.85,12.81-2.11,18.93-.97,4.73-1.86,11.71-1.02,20.74-4.65,0-9.3,0-13.95-.01-.99-19.25-1.97-38.5-2.96-57.75.43-.94,1.07-2.06,2.02-3.17,2.4-2.81,5.35-3.93,6.85-4.38,2.04-.66,4.12-1.29,6.23-1.91,12.27-3.57,24.07-5.89,35.16-7.33,1.67.18,4.43.71,7.31,2.47,4.71,2.87,6.67,7.16,7.31,8.75Z"/>
      <path class="cls-4" d="m80.04,191.8h26.31c.02-1.04-.07-2.46-.5-4.09-.4-1.5-.97-2.7-1.47-3.55-3.11,2.44-5.04,2.64-6.29,2.16-2.4-.9-3.32-4.66-4.25-4.4-.37.1-.52.77-.58,1.39-4.35,2.07-8.7,4.15-13.05,6.22-.1.11-.43.51-.48,1.12-.04.6.22,1.03.31,1.16Z"/>
      <path class="cls-4" d="m59.85,190.99h26.31c.02-1.04-.07-2.46-.5-4.09-.4-1.5-.97-2.7-1.47-3.55-3.11,2.44-5.04,2.63-6.29,2.16-2.4-.9-3.32-4.66-4.25-4.4-.37.1-.52.77-.58,1.39-4.35,1.96-8.7,3.92-13.04,5.88-.13.18-.49.7-.49,1.46,0,.55.2.96.31,1.16Z"/>
      <path class="cls-5" d="m80.11,191.21c.09,0,.18-.03.25-.09.16-.14.18-.38.04-.54-.17-.19-.36-.49-.33-.8.03-.3.34-.61.9-.95,1.44-.86,3.54-1.19,5.04-1.32.21-.02.36-.2.35-.41-.02-.21-.22-.34-.41-.35-1.58.13-3.8.49-5.37,1.42-.8.48-1.21.96-1.27,1.52-.05.46.12.94.51,1.38.08.09.18.13.29.13Z"/>
      <path class="cls-5" d="m92.56,115.72c.1-.01,34.22-9.06,34.22-9.06.2-.05.32-.26.27-.47-.05-.2-.27-.32-.46-.27l-34.12,9.05c-.2.05-.32.26-.27.46.04.17.2.28.37.28Z"/>
      <path class="cls-5" d="m89.14,129.39c.29-.06.42-.26.37-.47-.49-2.08-.83-5.28.36-8.75.45-1.31,1.08-2.55,1.88-3.69.12-.17.08-.41-.09-.53-.17-.12-.41-.08-.53.09-.84,1.2-1.5,2.5-1.98,3.87-1.26,3.64-.9,7-.38,9.18.04.17.2.29.37.29Z"/>
      <path class="cls-5" d="m85.61,128.15c.12,0,.24-.06.32-.17.12-.17.07-.41-.11-.52l-4.98-3.32c-.17-.12-.41-.07-.53.1-.12.17-.07.41.1.52l4.98,3.32c.07.04.14.07.21.07Z"/>
      <path class="cls-5" d="m106.13,129.39c.13,0,.26-.07.33-.2.1-.18.04-.41-.15-.52l-3.48-1.93c-.18-.1-.41-.03-.52.15-.1.18-.04.41.15.52l3.48,1.93c.06.03.12.05.18.05Z"/>
      <path class="cls-1" d="m110.24,30.87c-.06.19-.44,1.27-1.56,1.78-.98.45-2.16.3-3.07-.39,1.54-.46,3.08-.93,4.63-1.39Z"/>
      <path class="cls-7" d="m105.32,104.02c2.96.92,6.15,1.74,9.54,2.4,14.86,2.89,28.02,1.61,37.85-.46,1.6-13.01,1.66-28.5-2.3-45.24-.59-2.49-1.24-4.89-1.94-7.22-1.03-2.42-4.28-9.15-11.78-12.98-3.06-1.56-5.95-2.19-8.12-2.45-.23-1.35-.46-2.69-.7-4.04-2.43,1.3-4.86,2.6-7.29,3.9-.67,2.97-1.33,5.94-2,8.91-.79-2.57-1.59-5.14-2.38-7.7-.81.11-1.63.21-2.44.32-.04.85-.08,1.69-.13,2.54-4.83,4.6-9.67,9.2-14.5,13.8,2.06,16.08,4.12,32.16,6.18,48.23Z"/>
      <path class="cls-2" d="m125.43,63.22c-1.84,3.11-3.66,6.24-5.5,9.36-.03.04-.06.08-.07.13-2.65,4.49-5.28,8.96-7.93,13.46l8.15,6.47c3.66-4.1,6.81-7.82,9.38-10.98,1.05-1.28,2-2.48,2.88-3.59l.58-.74c12.42-15.92,13.84-21.49,12.36-25.43-.3-.81-.65-1.4-.93-1.78-1.63-.29-5.56-.75-9.75,1.23-7.18,3.36-8.97,10.9-9.17,11.87Z"/>
      <path class="cls-2" d="m92.06,59.87c-1.43,1.86-2.86,3.71-4.28,5.57,2.69,2.45,5.41,4.98,8.14,7.6,9.1,8.73,13.51,13.24,14.29,14.42.65.98,2,3.11,4.61,4.32,1.97.92,3.91.96,5.26.85,1.12-3.98,2.24-7.96,3.37-11.94-2.63-2.49-4.96-4.19-6.5-5.22-8.41-5.68-14.14-5.81-21.26-11.99-1.7-1.47-2.93-2.82-3.63-3.62Z"/>
      <path class="cls-2" d="m50.11,78.83c-8.55.68-17.09,1.35-25.64,2.03.05.02,6.94,2.46,6.99,2.48.05.02,7.16,2.54,7.21,2.56,2.27-.17,4.59-.38,6.96-.63,1.34-.14,2.66-.3,3.96-.46,1.18.24,3.05.63,5.35,1.14,2.96.65,5.05,1.15,5.96,1.37.81.19,9.43,2.15,20.01,3.43,2.39.29,4.08.43,6.22-.06,3.36-.78,5.76-2.65,7.15-3.97-2.18-3.05-4.35-6.11-6.53-9.16-3.59-.5-6.47-.52-8.32-.47-10.15.27-14.88,3.49-24.26,2.6-2.24-.21-4.02-.59-5.05-.83Z"/>
      <path class="cls-7" d="m118.58,72.66c-.44.84-1.06,2.11-1.67,3.71-2.46,6.43-4.23,16.88-.58,19.07.59.35,3.11,1.56,9.77-3.37,10.51-14.22,17.64-25.66,20.07-31.43,1.28-3.03,1.84-5.8.79-8.32-.92-2.2-2.54-3.43-3.31-3.94-1.74-.19-5.06-.31-8.73,1.22-6.19,2.59-8.79,7.99-9.41,9.36-2.31,4.57-4.62,9.13-6.93,13.7Z"/>
      <path class="cls-5" d="m136.76,82.56c.09,0,.18-.03.25-.09.16-.14.17-.38.03-.54-2.33-2.65-5.27-4.66-8.52-5.83-2.35-.85-4.84-1.26-7.38-1.2-.21,0-.38.18-.37.39,0,.2.17.37.38.37.17-.04.29,0,.43,0,2.3,0,4.55.39,6.68,1.16,3.95,1.42,6.65,3.84,8.21,5.62.07.08.18.13.28.13Z"/>
      <path class="cls-5" d="m140.92,80.26c.09,0,.19-.03.26-.1.15-.14.16-.38.02-.54-.7-.76-1.9-1.72-3.64-2.02-.69-.12-1.39-.12-2.09,0-.21.04-.35.23-.31.44.03.2.24.34.44.31.62-.11,1.23-.11,1.84,0,1.53.26,2.59,1.12,3.21,1.79.08.08.18.12.28.12Z"/>
      <path class="cls-5" d="m132.33,75.65c.18,0,.34-.13.37-.31l4.44-23.18c.04-.2-.09-.4-.3-.44-.21-.02-.4.1-.44.3l-4.44,23.18c-.04.2.09.4.3.44.02,0,.05,0,.07,0Z"/>
      <path class="cls-5" d="m129.35,99.91c.13,0,.26-.07.33-.2.1-.18.03-.41-.15-.52l-11.03-6.06c-.18-.1-.41-.03-.51.15-.1.18-.03.41.15.52l11.03,6.06c.06.03.12.05.18.05Z"/>
      <path class="cls-5" d="m105.61,69.02c.24-.02.4-.2.38-.41l-.84-10.12c-.02-.2-.22-.36-.41-.35-.21.02-.36.2-.35.41l.84,10.12c.02.2.18.35.38.35Z"/>
      <path class="cls-7" d="m87.83,73.72c1.71,1.24,4.02,3.17,6.19,5.98,3.79,4.9,5.89,10.85,4.76,11.66-.61.44-1.64-1.01-3.45-.63-1.68.36-1.99,1.87-3.41,2.06-1.48.21-2.82-1.21-3.49-1.94-3.23-3.44-3.96-9.33-2.19-14.06.53-1.41,1.18-2.46,1.6-3.07Z"/>
      <g>
        <path class="cls-5" d="m29.69,80.03h54.49c.86,0,1.74-.7,1.95-1.57l8.3-34.15c.21-.86-.32-1.57-1.18-1.57h-54.49c-.86,0-1.74.7-1.95,1.57l-8.3,34.15c-.21.86.32,1.57,1.18,1.57Z"/>
        <path class="cls-10" d="m30.89,79.33h52.44c.83,0,1.67-.67,1.87-1.51l7.99-32.86c.2-.83-.31-1.51-1.14-1.51h-52.44c-.83,0-1.67.67-1.87,1.51l-7.99,32.86c-.2.83.31,1.51,1.14,1.51Z"/>
        <rect class="cls-5" x="6.99" y="79.51" width="80.17" height="1.35" rx=".19" ry=".19" transform="translate(94.14 160.37) rotate(-180)"/>
      </g>
      <path class="cls-2" d="m95.55,65.45c.14-1.22.47-5.37-2.19-9.26-3.68-5.38-10.62-6.63-11.06-5.84-.18.33.53,1.36,5.33,4.83-16.14-2.68-20.05-2.46-20.27-1.63-.3,1.17,6.77,3.38,17.46,10.5,2.73,1.82,4.92,3.44,6.42,4.59l4.3-3.18Z"/>
      <path class="cls-5" d="m91.75,70.52l3.83,2.91c1.35-2.62,2.69-5.25,4.04-7.87-1.34-.92-2.68-1.85-4.02-2.77-1.29,2.58-2.57,5.16-3.86,7.74Z"/>
      <path class="cls-1" d="m93.87,67.98c0,1.01.81,1.82,1.82,1.82s1.82-.81,1.82-1.82-.81-1.82-1.82-1.82-1.82.81-1.82,1.82Z"/>
      <path class="cls-5" d="m125.16,10.08c-1.75.11-3.37-.79-5.01-1.42-2.36-.91-4.92-1.29-7.45-1.09-4.33.34-8.56,2.35-12.86,1.72-.04.98-.09,1.98.22,2.91.3.93,1.03,1.78,1.99,1.95.12.9,1.04,1.51,1.95,1.59s1.78-.26,2.62-.6c.84-.34,1.71-.7,2.61-.67.52.81,1.7.88,2.61.58s1.74-.86,2.68-1.05,2.13.21,2.33,1.15c.1.46-.06.93,0,1.39.06.46.54.94.95.71.07,2.03.8,4.04,2.05,5.65.3-.32.38-.79.43-1.22s.12-.9.4-1.24c.28-.34.86-.47,1.15-.13.17.19.19.47.2.72.11,2.39.22,4.78.33,7.16.03.61.11,1.66.88,1.81.58.11.74-.68.92-1.08.66-1.44,1.37-2.8,1.83-4.34.9-3.03,1.12-6.27.64-9.4-.27-1.75-.76-3.47-1.47-5.1Z"/>
    </g>
    <path class="cls-8" d="m128.25,67.03h82.49c1.62,0,2.94,1.32,2.94,2.94v50.37c0,9.31-7.56,16.87-16.87,16.87h-68.56c-1.62,0-2.94-1.32-2.94-2.94v-64.3c0-1.62,1.32-2.94,2.94-2.94Z" transform="translate(338.99 204.23) rotate(-180)"/>
  </g>
</svg>