<?xml version="1.0" encoding="utf-8"?>
<!-- Generator: Adobe Illustrator 24.0.1, SVG Export Plug-In . SVG Version: 6.00 Build 0)  -->
<svg version="1.1" id="Capa_1" xmlns="http://www.w3.org/2000/svg" xmlns:xlink="http://www.w3.org/1999/xlink" x="0px" y="0px"
	 viewBox="0 0 841.89 595.28" style="enable-background:new 0 0 841.89 595.28;" xml:space="preserve">
<style type="text/css">
	.st0{fill:none;stroke:#1371B0;stroke-width:13;stroke-miterlimit:10;}
	.st1{fill:none;stroke:#1371B0;stroke-width:3;stroke-miterlimit:10;}
	.st2{fill:#1371B0;}
	.st3{fill:none;}
	.st4{font-family:'MyriadPro-Regular';}
	.st5{font-size:80px;}
</style>
<path class="st0" d="M133.51,342.32l3.04-68.46c0-43.49,35.26-78.75,78.75-78.75h73.68c23.53,0,42.61,19.08,42.61,42.61v31.47
	c0,37.9-30.72,68.62-68.62,68.62L133.51,342.32z"/>
<path class="st1" d="M270.2,195.11v-11.45c0-18.84-15.27-34.12-34.12-34.12l1.87,0.07c-16.78,0-32.25,13.53-32.25,30.3v15.19H270.2z
	"/>
<circle class="st2" cx="187.25" cy="266.84" r="10.98"/>
<circle class="st2" cx="233.77" cy="266.54" r="10.98"/>
<circle class="st2" cx="281.18" cy="266.84" r="10.98"/>
<rect x="369.52" y="235.54" class="st3" width="392.82" height="148.35"/>
<text transform="matrix(1 0 0 1 369.5237 292.3423)"><tspan x="0" y="0" class="st4 st5">event</tspan><tspan x="189.52" y="0" class="st2 st4 st5">ify</tspan></text>
</svg>
