<?xml version="1.0" standalone="no"?>
<!DOCTYPE svg PUBLIC "-//W3C//DTD SVG 1.0//EN" "http://www.w3.org/TR/2001/REC-SVG-20010904/DTD/svg10.dtd">
<svg xmlns="http://www.w3.org/2000/svg" xmlns:xlink="http://www.w3.org/1999/xlink" id="body_1" width="1500px" height="1500px">

<g transform="matrix(2.4326217 0 0 2.4326217 -0 43.954372)">
    <path d="M133.51 342.32L136.54999 273.86002C 136.54999 230.37001 171.80998 195.11002 215.29999 195.11002L215.29999 195.11002L288.97998 195.11002C 312.50998 195.11002 331.58997 214.19002 331.58997 237.72002L331.58997 237.72002L331.58997 269.19C 331.58997 307.09 300.86996 337.81 262.96997 337.81L262.96997 337.81L133.51 342.32z" stroke="#FFFFFF" stroke-width="13" fill="none" />
    <path d="M270.2 195.11L270.2 183.66C 270.2 164.82 254.93001 149.54001 236.08002 149.54001L236.08002 149.54001L237.95001 149.61002C 221.17001 149.61002 205.70001 163.14001 205.70001 179.91002L205.70001 179.91002L205.70001 195.10002L270.2 195.10002L270.2 195.11z" stroke="#FFFFFF" stroke-width="3" fill="none" />
    <path d="M198.23 266.84C 198.23001 269.87207 197.15802 272.46008 195.01404 274.60403C 192.87006 276.74805 190.28204 277.82 187.25 277.82C 184.21796 277.82 181.62994 276.74805 179.48596 274.60403C 177.342 272.46008 176.27 269.87207 176.27 266.84C 176.27 263.80798 177.342 261.21997 179.48596 259.07596C 181.62994 256.932 184.21796 255.86 187.25 255.86C 190.28204 255.86 192.87006 256.932 195.01404 259.07596C 197.15802 261.21997 198.23001 263.80798 198.23 266.84C 198.23001 266.96777 198.22778 267.09552 198.22331 267.2232" stroke="none" fill="#FFFFFF" fill-rule="nonzero" />
    <path d="M244.75 266.54C 244.75 269.57205 243.67802 272.16006 241.53404 274.30405C 239.39008 276.44803 236.80206 277.52002 233.77 277.52002C 230.73798 277.52002 228.14996 276.44803 226.00597 274.30405C 223.862 272.16006 222.79001 269.57205 222.79001 266.54C 222.79001 263.50797 223.862 260.91995 226.00597 258.77597C 228.14996 256.63202 230.73798 255.56003 233.77 255.56001C 236.80206 255.56003 239.39008 256.63202 241.53404 258.77597C 243.67802 260.91995 244.75 263.50797 244.75 266.54C 244.75 266.6678 244.74777 266.79553 244.74332 266.92322" stroke="none" fill="#FFFFFF" fill-rule="nonzero" />
    <path d="M292.16 266.84C 292.16003 269.87207 291.088 272.46008 288.94403 274.60403C 286.80005 276.74805 284.21204 277.82 281.18 277.82C 278.14795 277.82 275.55994 276.74805 273.41595 274.60403C 271.27197 272.46008 270.2 269.87207 270.19998 266.84C 270.2 263.80798 271.27197 261.21997 273.41595 259.07596C 275.55994 256.932 278.14795 255.86 281.18 255.86C 284.21204 255.86 286.80005 256.932 288.94403 259.07596C 291.088 261.21997 292.16003 263.80798 292.16 266.84C 292.16003 266.96777 292.15778 267.09552 292.1533 267.2232" stroke="none" fill="#FFFFFF" fill-rule="nonzero" />
    <path d="M369.52 235.54L762.33997 235.54L762.33997 383.89L369.52 383.89z" stroke="none" fill="none" />

</g>
</svg>