<?xml version="1.0" encoding="utf-8"?>
<!-- Generator: Adobe Illustrator 24.0.1, SVG Export Plug-In . SVG Version: 6.00 Build 0)  -->
<svg version="1.1" id="Capa_1" xmlns="http://www.w3.org/2000/svg" xmlns:xlink="http://www.w3.org/1999/xlink" x="0px" y="0px"
	 viewBox="0 0 557.72 250.34" style="enable-background:new 0 0 557.72 250.34;" xml:space="preserve">
<style type="text/css">
	.st0{fill:none;stroke:#1371B0;stroke-width:13;stroke-miterlimit:10;}
	.st1{fill:none;stroke:#1371B0;stroke-width:3;stroke-miterlimit:10;}
	.st2{fill:#1371B0;}
	.st3{fill:none;}
	.st4{font-family:'Helvetica';}
	.st5{font-size:80px;}
</style>
<g>
	<path class="st0" d="M25.66,221.06l3.04-68.46c0-43.49,35.26-78.75,78.75-78.75h73.68c23.53,0,42.61,19.08,42.61,42.61v31.47
		c0,37.9-30.72,68.62-68.62,68.62L25.66,221.06z"/>
	<path class="st1" d="M162.36,73.85V62.4c0-18.84-15.27-34.12-34.12-34.12l1.87,0.07c-16.78,0-32.25,13.53-32.25,30.3v15.19H162.36z
		"/>
	<circle class="st2" cx="79.4" cy="145.59" r="10.98"/>
	<circle class="st2" cx="125.93" cy="145.28" r="10.98"/>
	<circle class="st2" cx="173.34" cy="145.59" r="10.98"/>
</g>
<rect x="261.68" y="114.29" class="st3" width="392.82" height="148.35"/>
<text transform="matrix(1 0 0 1 261.6781 171.8656)"><tspan x="0" y="0" class="st4 st5">event</tspan><tspan x="195.7" y="0" class="st2 st4 st5">ify</tspan></text>
</svg>
