<?xml version="1.0" encoding="utf-8"?>

<!-- Uploaded to: SVG Repo, www.svgrepo.com, Generator: SVG Repo Mixer Tools -->
<svg fill="#ffffff" height="800px" width="800px" version="1.1" id="Icons" xmlns="http://www.w3.org/2000/svg" xmlns:xlink="http://www.w3.org/1999/xlink" 
	 viewBox="0 0 32 32" xml:space="preserve">
<path d="M16,2c-2.8,0-5,2.2-5,5v18c0,2.8,2.2,5,5,5s5-2.2,5-5V7C21,4.2,18.8,2,16,2z M16.8,10.9c0.8,1.2,0.8,2.9,0,4.1
	c-0.4,0.6-0.4,1.3,0,1.9c0.8,1.2,0.8,2.9,0,4.1c-0.4,0.6-0.4,1.3,0,1.9l1,1.5c0.3,0.5,0.2,1.1-0.3,1.4C17.4,25.9,17.2,26,17,26
	c-0.3,0-0.6-0.2-0.8-0.4l-1-1.5c-0.8-1.2-0.8-2.9,0-4.1c0.4-0.6,0.4-1.3,0-1.9c-0.8-1.2-0.8-2.9,0-4.1c0.4-0.6,0.4-1.3,0-1.9
	c-0.8-1.2-0.8-2.9,0-4.1l1-1.5c0.3-0.5,0.9-0.6,1.4-0.3c0.5,0.3,0.6,0.9,0.3,1.4l-1,1.5C16.4,9.6,16.4,10.4,16.8,10.9z"/>
<path d="M9,25V7c0-0.7,0.1-1.3,0.3-1.9C6.9,5.4,5,7.4,5,9.9v12.1c0,2.5,1.9,4.5,4.3,4.9C9.1,26.3,9,25.7,9,25z"/>
<path d="M22.7,5.1C22.9,5.7,23,6.3,23,7v18c0,0.7-0.1,1.3-0.3,1.9c2.4-0.3,4.3-2.4,4.3-4.9V9.9C27,7.4,25.1,5.4,22.7,5.1z"/>
</svg>