<?xml version="1.0" encoding="utf-8"?>
<!-- Uploaded to: SVG Repo, www.svgrepo.com, Generator: SVG Repo Mixer Tools -->
<svg fill="#ffffff" version="1.1" id="Layer_1" xmlns="http://www.w3.org/2000/svg" xmlns:xlink="http://www.w3.org/1999/xlink" 
	 width="800px" height="800px" viewBox="0 0 236 260" xml:space="preserve">
<path d="M227.1,67.8c-10.2-11.7-27.9-12.9-39.5-2.7C169.2,81.2,145.9,90,122,90c-23.9,0-47.2-8.8-65.6-24.9
	c-10.4-9.1-25.5-9.1-35.9-0.8L11,56.5L2,67.2l10.1,8.4c-4.4,10.8-1.8,23.6,7.5,31.7c18.7,16.3,40.9,28.1,64.4,34.1V188
	c0,12.2,9.7,22,21.8,22H116v48h12v-48h9.8c12.2,0,22.2-9.8,22.2-22v-46.7c23.6-6,45.6-17.5,64.4-33.9
	C236.1,97.2,237.3,79.5,227.1,67.8z M116,182H96v-38c6.6,1.1,13.3,1.7,20,2V182z M148,182h-20v-36c6.7-0.3,13.4-0.9,20-2V182z
	 M119.2,76.5c-5.2-5.4-8.1-12.5-8.1-20c0-7,2.7-13.8,7.9-19.9c2.8-3.2,6-9,6-14.6c0-5.4-2.1-10.6-5.8-14.5L125,2
	c5.2,5.4,8.1,12.5,8.1,20c0,7.9-4.1,15.4-7.9,19.9c-4,4.6-6,9.5-6,14.6c0,5.4,2.1,10.6,5.8,14.5L119.2,76.5z M153.7,62.5
	c-2.6-2.8-4.1-6.4-4.1-10.2c0-3.6,1.4-7.1,4.3-10.4c3-3.5,6.2-9.4,6.2-15.6c0-5.9-2.3-11.5-6.3-15.8l-5.8,5.5
	c2.6,2.8,4.1,6.4,4.1,10.2c0,4-2.3,8.1-4.3,10.4c-4,4.7-6.2,10.1-6.2,15.6c0,5.9,2.3,11.5,6.3,15.8L153.7,62.5z M96.2,62.5
	c-2.6-2.8-4.1-6.4-4.1-10.2c0-3.6,1.4-7.1,4.3-10.4c3-3.5,6.2-9.4,6.2-15.6c0-5.9-2.3-11.5-6.3-15.8l-5.8,5.5
	c2.6,2.8,4.1,6.4,4.1,10.2c0,4-2.3,8.1-4.3,10.4c-4,4.7-6.2,10.1-6.2,15.6c0,5.9,2.3,11.5,6.3,15.8L96.2,62.5z"/>
</svg>