<?xml version="1.0" encoding="iso-8859-1"?>
<!-- Uploaded to: SVG Repo, www.svgrepo.com, Generator: SVG Repo Mixer Tools -->
<!DOCTYPE svg PUBLIC "-//W3C//DTD SVG 1.1//EN" "http://www.w3.org/Graphics/SVG/1.1/DTD/svg11.dtd">
<svg fill="#ffffff" version="1.1" id="Capa_1" xmlns="http://www.w3.org/2000/svg" xmlns:xlink="http://www.w3.org/1999/xlink" 
	 width="800px" height="800px" viewBox="0 0 14.305 14.305"
	 xml:space="preserve">
<g>
	<g>
		<path d="M6.646,1.612h1.012c0.237,0,0.431-0.192,0.431-0.43V0.43C8.089,0.192,7.896,0,7.658,0H6.646
			c-0.237,0-0.43,0.192-0.43,0.43v0.752C6.217,1.419,6.409,1.612,6.646,1.612z"/>
		<path d="M9.707,4.931L7.99,1.787H6.317L4.598,4.931v8.299h0.01c-0.004,0.029-0.01,0.059-0.01,0.09
			c0,0.455,0.401,0.984,0.895,0.984c0.377,0,0.698-0.308,0.83-0.656c0.132,0.349,0.453,0.656,0.83,0.656s0.698-0.308,0.83-0.656
			c0.133,0.349,0.453,0.656,0.83,0.656c0.494,0,0.895-0.529,0.895-0.984c0-0.031-0.006-0.061-0.01-0.09h0.01V4.931z M9.141,8.934
			L9.141,8.934C9.14,9.171,8.947,9.364,8.709,9.364H5.596c-0.237,0-0.43-0.192-0.43-0.431v-2.1c0-0.237,0.192-0.43,0.43-0.43h3.115
			c0.236,0,0.43,0.192,0.43,0.43V8.934z"/>
		<path d="M8.509,6.638H5.797C5.59,6.638,5.423,6.8,5.423,7v1.768c0,0.2,0.167,0.362,0.374,0.362h2.712
			c0.207,0,0.374-0.162,0.374-0.362V7C8.883,6.8,8.715,6.638,8.509,6.638z"/>
	</g>
</g>
</svg>