<?xml version="1.0" encoding="iso-8859-1"?>
<!-- Uploaded to: SVG Repo, www.svgrepo.com, Generator: SVG Repo Mixer Tools -->
<!DOCTYPE svg PUBLIC "-//W3C//DTD SVG 1.1//EN" "http://www.w3.org/Graphics/SVG/1.1/DTD/svg11.dtd">
<svg fill="#ffffff" height="800px" width="800px" version="1.1" id="Capa_1" xmlns="http://www.w3.org/2000/svg" xmlns:xlink="http://www.w3.org/1999/xlink" 
	 viewBox="0 0 48.584 48.584" xml:space="preserve">
<g>
	<path d="M39.49,38.9l-2.104-1.403c-0.708-0.472-1.74-0.282-2.237,0.411c-0.814,1.14-1.026,1.899-0.705,2.54
		c0.097,0.192,0.276,0.551,2.489,2.617c0.304,0.283,0.698,0.438,1.111,0.438c0.705,0,1.328-0.448,1.552-1.117l0.536-1.61
		C40.366,40.08,40.103,39.309,39.49,38.9z"/>
	<path d="M47.193,43.706c-0.578-0.534-1.452-0.683-2.178-0.37l-2.104,0.911c-0.512,0.222-0.913,0.65-1.102,1.175
		c-0.188,0.525-0.15,1.111,0.104,1.607l0.232,0.453c0.348,0.68,1.038,1.102,1.802,1.102c0.369,0,0.731-0.103,1.049-0.295
		c2.678-1.625,2.888-1.899,3.024-2.078C48.804,45.2,47.592,44.076,47.193,43.706z"/>
	<path d="M44.735,36c0.733,0,1.392-0.407,1.72-1.063l0.848-1.696c0.3-0.601,0.27-1.299-0.082-1.868
		c-0.439-0.711-1.298-1.06-2.104-0.856l-1.708,0.427c-0.464,0.115-0.866,0.399-1.134,0.799l-0.846,1.27
		c-0.394,0.591-0.43,1.348-0.095,1.974S42.319,36,43.028,36H44.735z"/>
	<circle cx="8.805" cy="6.5" r="1.5"/>
	<path d="M18.727,40.38c-0.134,0.032-0.271,0.06-0.407,0.089c-0.348,0.074-0.699,0.142-1.057,0.197
		c-0.334,0.052-0.671,0.096-1.013,0.13c-0.157,0.015-0.315,0.029-0.473,0.04c-0.485,0.036-0.974,0.062-1.472,0.062
		s-0.987-0.025-1.472-0.062c-0.159-0.012-0.316-0.025-0.473-0.04c-0.341-0.034-0.679-0.078-1.013-0.13
		c-0.359-0.054-0.709-0.123-1.057-0.197c-0.136-0.029-0.273-0.057-0.407-0.089c-4.108-0.974-7.414-3.303-9.425-6.526
		c-0.005-0.008-0.011-0.016-0.017-0.025c0.925,6.369,6.471,10.814,13.864,10.814s12.939-4.445,13.864-10.814
		c-0.005,0.008-0.011,0.016-0.017,0.025C26.141,37.077,22.835,39.406,18.727,40.38z"/>
	<path d="M25.938,0c-1.083,0-2.479,0.312-4.096,0.672c-2.235,0.499-4.77,1.064-7.537,1.064c-2.769,0-5.302-0.565-7.537-1.064
		C5.151,0.312,3.755,0,2.672,0C1.377,0,0.305,0.271,0.305,3.608c0,2.275,0.564,4.356,1.578,6.148
		c0.055,0.096,0.116,0.189,0.174,0.284c0.137,0.226,0.279,0.449,0.43,0.665c0.107,0.151,0.219,0.299,0.332,0.445
		c0.109,0.141,0.22,0.279,0.335,0.416c0.157,0.184,0.317,0.366,0.485,0.541c0.072,0.076,0.147,0.148,0.221,0.222
		c0.214,0.212,0.432,0.421,0.662,0.618c0.003,0.003,0.007,0.006,0.011,0.009c1.358,1.16,2.992,2.053,4.82,2.63
		c0.064,0.02,0.128,0.041,0.193,0.061c0.295,0.089,0.597,0.167,0.902,0.24c0.138,0.032,0.276,0.062,0.416,0.09
		c0.259,0.054,0.519,0.104,0.784,0.146c0.224,0.035,0.453,0.061,0.682,0.086c0.202,0.023,0.402,0.05,0.607,0.067
		c0.45,0.035,0.905,0.057,1.37,0.057s0.92-0.022,1.37-0.057c0.205-0.016,0.405-0.043,0.607-0.067
		c0.229-0.026,0.457-0.052,0.682-0.086c0.265-0.042,0.525-0.092,0.784-0.146c0.14-0.029,0.278-0.058,0.416-0.09
		c0.305-0.072,0.606-0.151,0.902-0.24c0.065-0.019,0.129-0.04,0.193-0.061c1.827-0.577,3.462-1.471,4.82-2.63
		c0.003-0.003,0.007-0.006,0.011-0.009c0.23-0.197,0.448-0.406,0.662-0.618c0.074-0.074,0.149-0.147,0.221-0.222
		c0.168-0.175,0.328-0.356,0.485-0.541c0.115-0.136,0.227-0.275,0.335-0.416c0.114-0.146,0.226-0.294,0.332-0.445
		c0.151-0.216,0.294-0.439,0.43-0.665c0.058-0.095,0.119-0.187,0.174-0.284c1.014-1.792,1.578-3.873,1.578-6.148
		C28.305,0.271,27.233,0,25.938,0z M3.305,4c-0.552,0-1-0.448-1-1s0.448-1,1-1s1,0.448,1,1S3.857,4,3.305,4z M8.805,10
		c-1.93,0-3.5-1.57-3.5-3.5S6.875,3,8.805,3s3.5,1.57,3.5,3.5S10.735,10,8.805,10z M13.305,14c-0.552,0-1-0.448-1-1s0.448-1,1-1
		s1,0.448,1,1S13.857,14,13.305,14z M18.805,12c-0.828,0-1.5-0.672-1.5-1.5s0.672-1.5,1.5-1.5s1.5,0.672,1.5,1.5
		S19.633,12,18.805,12z M21.305,6c-0.552,0-1-0.448-1-1s0.448-1,1-1s1,0.448,1,1S21.857,6,21.305,6z"/>
	<path d="M18.723,23.56c-0.13,0.031-0.263,0.058-0.395,0.087c-0.352,0.075-0.706,0.144-1.068,0.199
		c-0.333,0.052-0.669,0.096-1.009,0.13c-0.157,0.015-0.315,0.029-0.474,0.041c-0.485,0.036-0.974,0.062-1.471,0.062
		s-0.987-0.025-1.471-0.062c-0.159-0.012-0.317-0.025-0.474-0.041c-0.34-0.034-0.676-0.078-1.009-0.13
		c-0.362-0.055-0.717-0.124-1.068-0.199c-0.132-0.029-0.265-0.055-0.395-0.087c-4.117-0.975-7.429-3.311-9.44-6.544
		c-0.002-0.003-0.004-0.005-0.006-0.008c0.056,0.386,0.131,0.764,0.22,1.135c0.015,0.063,0.035,0.122,0.051,0.184
		c0.082,0.319,0.172,0.635,0.278,0.943c0.016,0.047,0.036,0.093,0.053,0.14c0.11,0.307,0.231,0.61,0.365,0.904
		c0.034,0.075,0.073,0.148,0.109,0.222c0.121,0.253,0.249,0.501,0.387,0.744c0.07,0.121,0.145,0.239,0.218,0.357
		c0.112,0.181,0.226,0.361,0.348,0.536c0.117,0.168,0.241,0.331,0.367,0.492c0.086,0.112,0.173,0.223,0.263,0.332
		C3.272,23.2,3.451,23.4,3.637,23.594c0.051,0.053,0.102,0.107,0.154,0.16c0.228,0.229,0.464,0.451,0.71,0.663
		c0.014,0.012,0.029,0.025,0.043,0.037c1.658,1.413,3.725,2.435,6.056,2.962c0.023,0.005,0.046,0.009,0.069,0.014
		c0.362,0.08,0.73,0.149,1.104,0.205c0.127,0.019,0.258,0.029,0.386,0.044c0.281,0.035,0.561,0.072,0.847,0.093
		c0.427,0.031,0.859,0.049,1.299,0.049s0.873-0.018,1.299-0.049c0.286-0.021,0.567-0.057,0.847-0.093
		c0.128-0.016,0.259-0.026,0.386-0.044c0.374-0.056,0.742-0.125,1.104-0.205c0.023-0.005,0.046-0.009,0.069-0.014
		c2.33-0.526,4.397-1.549,6.056-2.962c0.014-0.012,0.029-0.025,0.043-0.037c0.247-0.212,0.483-0.434,0.71-0.663
		c0.052-0.053,0.103-0.106,0.154-0.16c0.186-0.194,0.365-0.394,0.538-0.599c0.09-0.109,0.177-0.22,0.263-0.332
		c0.126-0.161,0.25-0.324,0.367-0.492c0.121-0.175,0.236-0.354,0.348-0.536c0.074-0.118,0.149-0.236,0.218-0.357
		c0.138-0.242,0.266-0.491,0.387-0.744c0.036-0.074,0.075-0.147,0.109-0.222c0.134-0.295,0.254-0.597,0.365-0.904
		c0.017-0.047,0.037-0.093,0.053-0.14c0.106-0.307,0.196-0.623,0.278-0.943c0.016-0.062,0.036-0.122,0.051-0.184
		c0.089-0.371,0.164-0.749,0.22-1.135c-0.002,0.003-0.004,0.005-0.006,0.008C26.153,20.249,22.84,22.584,18.723,23.56z"/>
	<path d="M18.725,17.814c-0.132,0.032-0.266,0.059-0.399,0.088c-0.351,0.075-0.704,0.143-1.066,0.198
		c-0.333,0.052-0.669,0.096-1.009,0.13c-0.157,0.015-0.315,0.029-0.474,0.041c-0.485,0.036-0.974,0.062-1.471,0.062
		s-0.987-0.025-1.471-0.062c-0.159-0.012-0.317-0.025-0.474-0.041c-0.34-0.034-0.676-0.078-1.009-0.13
		c-0.362-0.055-0.715-0.123-1.066-0.198c-0.133-0.029-0.268-0.056-0.399-0.088c-4.109-0.974-7.416-3.303-9.428-6.527
		c-0.005-0.008-0.011-0.016-0.017-0.025c0.056,0.385,0.13,0.762,0.219,1.132c0.016,0.068,0.038,0.133,0.055,0.201
		c0.081,0.313,0.169,0.623,0.273,0.925c0.019,0.054,0.041,0.105,0.06,0.159c0.108,0.301,0.226,0.596,0.357,0.885
		c0.037,0.082,0.08,0.161,0.119,0.243c0.118,0.245,0.242,0.486,0.375,0.722c0.074,0.129,0.154,0.255,0.233,0.381
		c0.107,0.172,0.216,0.343,0.331,0.51c0.123,0.176,0.253,0.347,0.385,0.516c0.08,0.103,0.16,0.206,0.244,0.307
		c0.178,0.213,0.364,0.42,0.557,0.621c0.044,0.046,0.088,0.093,0.133,0.138c0.234,0.236,0.477,0.465,0.732,0.683
		c0.006,0.006,0.013,0.011,0.019,0.017c1.661,1.418,3.733,2.444,6.069,2.971c0.018,0.004,0.037,0.007,0.055,0.011
		c0.366,0.081,0.739,0.151,1.117,0.208c0.122,0.018,0.249,0.028,0.372,0.043c0.285,0.036,0.569,0.073,0.859,0.094
		c0.427,0.031,0.859,0.049,1.299,0.049s0.873-0.018,1.299-0.049c0.291-0.021,0.575-0.058,0.859-0.094
		c0.124-0.015,0.25-0.025,0.372-0.043c0.379-0.057,0.751-0.126,1.117-0.208c0.018-0.004,0.037-0.007,0.055-0.011
		c2.336-0.527,4.408-1.553,6.069-2.971c0.007-0.006,0.013-0.011,0.019-0.017c0.254-0.218,0.497-0.447,0.732-0.683
		c0.045-0.046,0.089-0.092,0.133-0.138c0.193-0.201,0.379-0.408,0.557-0.621c0.084-0.101,0.164-0.204,0.244-0.307
		c0.132-0.169,0.262-0.34,0.385-0.516c0.116-0.167,0.225-0.338,0.332-0.511c0.079-0.126,0.158-0.251,0.232-0.38
		c0.134-0.235,0.258-0.477,0.375-0.722c0.039-0.081,0.082-0.161,0.119-0.243c0.131-0.288,0.248-0.584,0.357-0.885
		c0.019-0.053,0.042-0.105,0.06-0.159c0.104-0.302,0.192-0.612,0.273-0.925c0.017-0.068,0.039-0.133,0.055-0.201
		c0.089-0.37,0.163-0.747,0.219-1.132c-0.005,0.008-0.011,0.016-0.017,0.025C26.141,14.512,22.833,16.84,18.725,17.814z"/>
	<path d="M18.724,29.304c-0.131,0.031-0.264,0.058-0.397,0.087c-0.352,0.075-0.706,0.144-1.068,0.199
		c-0.332,0.052-0.667,0.095-1.007,0.13c-0.158,0.015-0.317,0.029-0.477,0.041c-0.484,0.036-0.973,0.062-1.47,0.062
		s-0.986-0.025-1.47-0.062c-0.16-0.012-0.318-0.025-0.477-0.041c-0.34-0.034-0.675-0.078-1.007-0.13
		c-0.362-0.055-0.717-0.124-1.068-0.199c-0.132-0.029-0.266-0.056-0.397-0.087c-4.115-0.975-7.426-3.308-9.437-6.539
		c-0.003-0.004-0.006-0.008-0.009-0.013c0.05,0.345,0.12,0.682,0.197,1.015c0.03,0.133,0.066,0.263,0.1,0.394
		c0.068,0.257,0.141,0.512,0.225,0.761c0.033,0.1,0.07,0.197,0.106,0.296c0.097,0.264,0.2,0.524,0.314,0.778
		c0.041,0.091,0.084,0.181,0.127,0.271c0.118,0.246,0.243,0.487,0.376,0.723c0.057,0.1,0.116,0.199,0.175,0.298
		c0.128,0.211,0.262,0.418,0.403,0.62c0.083,0.119,0.167,0.236,0.254,0.351c0.126,0.168,0.258,0.332,0.393,0.494
		c0.117,0.139,0.236,0.277,0.359,0.411c0.114,0.125,0.232,0.245,0.351,0.365c0.157,0.158,0.317,0.313,0.483,0.463
		c0.094,0.085,0.192,0.167,0.289,0.249c0.201,0.169,0.404,0.336,0.617,0.494c0.071,0.053,0.145,0.104,0.218,0.156
		c0.243,0.173,0.491,0.341,0.748,0.499c0.05,0.031,0.102,0.059,0.152,0.09c0.281,0.168,0.569,0.329,0.865,0.477
		c0.036,0.018,0.072,0.034,0.108,0.052c0.312,0.153,0.63,0.297,0.957,0.429c0.032,0.013,0.066,0.024,0.098,0.037
		c0.331,0.13,0.667,0.252,1.012,0.359c0.045,0.014,0.092,0.025,0.138,0.039c0.334,0.101,0.673,0.194,1.019,0.274
		c0.083,0.019,0.169,0.032,0.252,0.05c0.314,0.067,0.63,0.13,0.954,0.179c0.163,0.024,0.332,0.038,0.498,0.058
		c0.252,0.03,0.503,0.065,0.76,0.084c0.432,0.032,0.87,0.05,1.316,0.05s0.884-0.018,1.316-0.05c0.257-0.019,0.508-0.054,0.76-0.084
		c0.166-0.02,0.335-0.033,0.498-0.058c0.323-0.049,0.639-0.112,0.954-0.179c0.083-0.018,0.17-0.031,0.252-0.05
		c0.346-0.079,0.685-0.173,1.019-0.274c0.045-0.014,0.093-0.025,0.138-0.039c0.345-0.108,0.682-0.229,1.012-0.359
		c0.032-0.013,0.066-0.024,0.098-0.037c0.327-0.132,0.645-0.276,0.957-0.429c0.036-0.017,0.073-0.034,0.108-0.052
		c0.297-0.149,0.584-0.31,0.865-0.477c0.051-0.03,0.102-0.059,0.152-0.09c0.257-0.158,0.505-0.326,0.748-0.499
		c0.073-0.052,0.147-0.103,0.218-0.156c0.212-0.158,0.416-0.324,0.617-0.494c0.097-0.082,0.195-0.164,0.289-0.249
		c0.166-0.149,0.326-0.305,0.483-0.463c0.119-0.12,0.237-0.241,0.351-0.365c0.123-0.134,0.242-0.272,0.359-0.411
		c0.135-0.161,0.266-0.326,0.393-0.494c0.087-0.115,0.171-0.233,0.254-0.351c0.14-0.202,0.275-0.409,0.403-0.62
		c0.06-0.098,0.118-0.198,0.175-0.298c0.133-0.236,0.259-0.477,0.376-0.723c0.043-0.09,0.086-0.18,0.127-0.271
		c0.114-0.254,0.217-0.514,0.314-0.778c0.036-0.098,0.073-0.196,0.106-0.296c0.084-0.249,0.156-0.504,0.225-0.761
		c0.034-0.131,0.07-0.261,0.1-0.394c0.077-0.333,0.147-0.67,0.197-1.015c-0.003,0.004-0.006,0.008-0.009,0.013
		C26.149,25.995,22.838,28.329,18.724,29.304z"/>
	<path d="M1.114,30.674c0.032,0.084,0.062,0.169,0.096,0.252c0.101,0.249,0.213,0.492,0.329,0.732
		c0.049,0.1,0.095,0.201,0.146,0.299c0.105,0.202,0.22,0.397,0.336,0.592c0.081,0.135,0.16,0.271,0.246,0.402
		c0.091,0.139,0.189,0.273,0.285,0.408c0.129,0.18,0.258,0.359,0.397,0.532c0.058,0.072,0.12,0.141,0.179,0.212
		c0.19,0.225,0.384,0.447,0.59,0.658c0.01,0.01,0.02,0.019,0.029,0.029c2.28,2.315,5.537,3.787,9.278,4.061
		c0.42,0.03,0.846,0.047,1.279,0.047s0.859-0.017,1.279-0.047c3.742-0.274,6.999-1.747,9.279-4.062
		c0.009-0.009,0.018-0.018,0.027-0.027c0.207-0.212,0.401-0.434,0.591-0.659c0.059-0.071,0.121-0.139,0.179-0.211
		c0.139-0.172,0.268-0.352,0.397-0.532c0.096-0.135,0.194-0.269,0.285-0.408c0.086-0.131,0.165-0.267,0.246-0.402
		c0.116-0.195,0.231-0.39,0.336-0.592c0.051-0.098,0.098-0.199,0.147-0.299c0.116-0.24,0.228-0.482,0.329-0.731
		c0.034-0.084,0.064-0.17,0.096-0.255c0.099-0.261,0.191-0.526,0.272-0.796c0.03-0.1,0.056-0.202,0.084-0.304
		c0.082-0.301,0.16-0.604,0.22-0.915c-0.025,0.038-0.053,0.074-0.078,0.113c-1.532,2.341-3.759,4.188-6.488,5.361
		c-0.006,0.003-0.012,0.005-0.018,0.008c-0.56,0.24-1.14,0.452-1.741,0.634c-0.062,0.019-0.122,0.04-0.184,0.059
		c-0.251,0.073-0.505,0.138-0.763,0.2c-0.229,0.056-0.461,0.105-0.695,0.153c-0.218,0.044-0.434,0.089-0.657,0.125
		c-0.403,0.067-0.813,0.117-1.227,0.158c-0.142,0.014-0.285,0.025-0.429,0.036c-0.489,0.037-0.983,0.062-1.486,0.062
		s-0.997-0.026-1.486-0.062c-0.144-0.011-0.287-0.022-0.429-0.036c-0.414-0.041-0.825-0.091-1.227-0.158
		c-0.222-0.036-0.439-0.082-0.657-0.125c-0.234-0.047-0.466-0.097-0.695-0.153c-0.257-0.062-0.512-0.128-0.763-0.2
		c-0.062-0.018-0.123-0.04-0.185-0.059c-0.6-0.181-1.18-0.393-1.74-0.633c-0.006-0.003-0.012-0.005-0.019-0.008
		c-2.728-1.173-4.956-3.019-6.488-5.361c-0.025-0.038-0.053-0.074-0.078-0.113c0.06,0.311,0.138,0.614,0.22,0.915
		c0.027,0.102,0.054,0.203,0.084,0.304C0.923,30.148,1.015,30.413,1.114,30.674z"/>
</g>
</svg>