<?xml version="1.0" encoding="iso-8859-1"?>
<!-- Uploaded to: SVG Repo, www.svgrepo.com, Generator: SVG Repo Mixer Tools -->
<svg fill="#ffffff" height="800px" width="800px" version="1.1" id="Layer_1" xmlns="http://www.w3.org/2000/svg" xmlns:xlink="http://www.w3.org/1999/xlink" 
	 viewBox="0 0 436.67 436.67" xml:space="preserve">
<g>
	<g>
		<g>
			<path d="M257.064,179.81h52.5c5.23-8.11,7.73-22.85,6.92-41.37c-0.21-4.7-0.62-9.21-1.15-13.38
				c-8.92,19.08-27.61,27.95-39.68,30.46C271.215,163.92,265.185,172.26,257.064,179.81z"/>
			<path d="M229.685,139.65c-33.72,10.37-41.29,30.43-42.94,40.16h43.06c26.67-14.64,36.41-37.45,39.8-54.73
				C261.105,129.37,248.445,133.87,229.685,139.65z"/>
			<path d="M174.135,165.98c-7.93,3.14-17.17,7.63-25.55,13.83h22.02C171.024,176.18,171.995,171.37,174.135,165.98z"/>
			<polygon points="162.845,295.81 133.735,436.67 302.925,436.67 273.814,295.81 			"/>
			<path d="M315.064,195.81c-0.57,0.12-1.149,0.19-1.729,0.19s-1.16-0.07-1.72-0.19h-205.28v39.91c0,24.31,19.78,44.09,44.09,44.09
				h135.82c24.31,0,44.09-19.78,44.09-44.09v-39.91H315.064z M267.835,238.42c0,14.66-11.93,26.58-26.59,26.58h-45.83
				c-14.66,0-26.58-11.92-26.58-26.58V225c0-4.42,3.58-8,8-8c4.42,0,8,3.58,8,8v13.42c0,5.83,4.75,10.58,10.58,10.58h45.83
				c5.84,0,10.59-4.75,10.59-10.58V225c0-4.42,3.58-8,8-8c4.42,0,8,3.58,8,8V238.42z"/>
			<path d="M299.455,26.35C281.995,9.5,257.235,0,230.055,0c-21.56,0-43.3,5.97-62.86,17.26c-45.24,26.12-69.01,75.89-58.26,119.09
				L299.455,26.35z"/>
		</g>
	</g>
</g>
</svg>